<svg width="512" height="512" version="1.1" viewBox="0 0 512 512" xmlns="http://www.w3.org/2000/svg" xmlns:xlink="http://www.w3.org/1999/xlink">
  <defs>
    <linearGradient id="linearGradient12" x1="12" x2="12" y1="24" y2="4.16" gradientTransform="matrix(5.42 0 0 5.42 -354 304)" gradientUnits="userSpaceOnUse">
      <stop stop-color="#208bb2" offset="0"/>
      <stop stop-color="#1faedc" offset="1"/>
    </linearGradient>
  </defs>
  <g transform="matrix(1.87 0 0 1.87 797 -428)">
    <path d="m-289 238c14.1 0.148 17.2 13.3 30.7 16.9 12.7 3.39 21.5-6.6 32.7 0.102 12.1 7.15 8.25 20.1 18.1 30 9.25 9.25 21.9 5.05 28.3 16.4 6.9 12.2-2.9 21.5 0.725 35 3.39 12.7 16.4 15.3 16.3 28.4-0.148 14.1-13.3 17.2-16.9 30.7-3.39 12.7 6.6 21.5-0.102 32.7-7.15 12.1-20.1 8.25-30 18.1-9.25 9.25-5.05 21.9-16.4 28.3-12.2 6.9-21.5-2.9-35 0.725-12.7 3.39-15.3 16.4-28.4 16.3-14.1-0.148-17.2-13.3-30.7-16.9-12.7-3.39-21.5 6.6-32.7-0.102-12.1-7.15-8.25-20.1-18.1-30-9.25-9.25-21.9-5.05-28.3-16.4-6.9-12.2 2.9-21.5-0.725-35-3.39-12.7-16.4-15.3-16.3-28.4 0.148-14.1 13.3-17.2 16.9-30.7 3.39-12.7-6.6-21.5 0.102-32.7 7.15-12.1 20.1-8.25 30-18.1 9.25-9.25 5.05-21.9 16.4-28.3 12.2-6.9 21.5 2.9 35-0.725 12.7-3.39 15.3-16.4 28.4-16.3z" fill="#daebf1" stroke="#1faedc" stroke-width="2.5"/>
    <path d="m-289 304c-12.4 0-22.5 10.1-22.5 22.5 0 12.4 10.1 22.5 22.5 22.5s22.5-10.1 22.5-22.5c0-12.4-10.1-22.5-22.5-22.5zm0 9.01c7.52 0 13.5 6 13.5 13.5 0 7.52-6 13.5-13.5 13.5-7.52 0-13.5-6-13.5-13.5 0-7.52 6-13.5 13.5-13.5zm0 7.51a6.01 6.01 0 0 0-6.01 6.01 6.01 6.01 0 0 0 6.01 6.01 6.01 6.01 0 0 0 6.01-6.01 6.01 6.01 0 0 0-6.01-6.01zm-43.2 22.4a4.51 4.51 45 0 0-2.48 1.26l-12.7 12.8c-5.69 5.69-7.91 14-5.83 21.8 2.08 7.77 8.15 13.9 15.9 15.9 7.77 2.08 16.1-0.144 21.8-5.83l12.7-12.8a4.51 4.51 45 0 0 0-6.37 4.51 4.51 45 0 0-6.38 0l-12.7 12.7c-3.42 3.42-8.37 4.74-13 3.49-4.67-1.25-8.31-4.88-9.56-9.55-1.25-4.67 0.0715-9.64 3.49-13.1l12.7-12.7a4.51 4.51 45 0 0 0-6.38 4.51 4.51 45 0 0-3.89-1.26zm84.9 0a4.51 4.51 45 0 0-2.48 1.26 4.51 4.51 45 0 0 0 6.38l12.7 12.7c3.42 3.42 4.74 8.38 3.49 13.1s-4.89 8.3-9.56 9.55c-4.67 1.25-9.62-0.0715-13-3.49l-12.7-12.7a4.51 4.51 45 0 0-6.38 0 4.51 4.51 45 0 0 0 6.37l12.7 12.8c5.69 5.69 14 7.91 21.8 5.83 7.77-2.08 13.8-8.16 15.9-15.9 2.08-7.77-0.144-16.1-5.83-21.8l-12.7-12.8a4.51 4.51 45 0 0-3.89-1.26zm-59.8 8.45c-5.88 0.0163-11.6 2.34-15.9 6.6l-12.7 12.7c-1.76 1.76-1.76 4.61 0 6.37 1.76 1.76 4.62 1.76 6.38 0l12.7-12.7c3.42-3.42 8.37-4.74 13-3.49 4.67 1.25 8.31 4.89 9.56 9.56 0.313 1.17 0.467 2.35 0.465 3.52v0.0109c-5e-3 3.52-1.39 6.95-3.96 9.51l-12.7 12.8c-0.829 0.829-1.26 1.9-1.31 2.98h-0.0109v9.01h18v21.2a4.51 4.51 0 0 0 4.51 4.51 4.51 4.51 0 0 0 4.51-4.51v-21.2h18v-9.01h-0.0109a4.51 4.51 45 0 0-1.31-2.98l-12.7-12.8c-2.56-2.56-3.95-5.99-3.96-9.51v-0.0109c-1e-3 -1.18 0.152-2.35 0.465-3.52 1.25-4.67 4.89-8.31 9.56-9.56 4.67-1.25 9.62 0.072 13 3.49l12.7 12.7a4.51 4.51 45 0 0 6.38 0 4.51 4.51 45 0 0 0-6.37l-12.7-12.7c-5.69-5.69-14-7.91-21.8-5.83-4.95 1.33-9.22 4.28-12.2 8.25-2.98-3.98-7.25-6.93-12.2-8.25-1.94-0.521-3.91-0.777-5.87-0.772zm18.1 36c0.637 0.85 1.33 1.67 2.09 2.43l9.36 9.36h-22.9l9.36-9.36c0.763-0.763 1.46-1.58 2.09-2.43z" color="#000000" fill="url(#linearGradient12)" stroke-linecap="square" stroke-width="5.42" style="-inkscape-stroke:none"/>
  </g>
</svg>
