<svg width="24" height="24" version="1.1" viewBox="0 0 24 24" xmlns="http://www.w3.org/2000/svg">
  <g transform="matrix(1 0 0 .999 .00743 .000172)">
    <path d="m18.2 8.28c0.0052 0.00905 0.0103 0.0179 0.0129 0.0225 0.13 0.225 0.206 0.481 0.21 0.748l0.0586 6.07c0.0027 0.358-0.185 0.688-0.491 0.865l-5.26 3.04c-0.225 0.13-0.465 0.214-0.708 0.229l0.0541 4.74c0.401-0.0335 0.801-0.163 1.17-0.383l8.69-5.02c0.506-0.298 0.816-0.843 0.811-1.43l-0.0907-10c-0.0032-0.442-0.129-0.867-0.341-1.24l-0.0047 0.0025c-0.55 0.306-2.73 1.57-4.11 2.37z" fill="#073042"/>
    <path d="m12.1 19.3c-0.264 0.0208-0.524-0.0333-0.769-0.168l-5.03-2.84c-0.47-0.262-0.76-0.755-0.766-1.3l-0.0504-5.78c-0.00354-0.256 0.0554-0.518 0.167-0.75l-4.14-2.31c-0.182 0.381-0.278 0.808-0.274 1.23l0.0859 9.54c0.0087 0.889 0.49 1.7 1.26 2.14l8.3 4.69c0.4 0.225 0.834 0.31 1.26 0.277z" fill="#3ddc84"/>
    <path d="m1.48 6.12 4.14 2.31c0.12-0.249 0.308-0.465 0.544-0.608l5.01-2.89c0.466-0.275 1.04-0.282 1.5-0.0165l5.03 2.84c0.224 0.128 0.412 0.308 0.541 0.521 1.37-0.798 3.55-2.06 4.1-2.36l0.0045-0.00266c-0.22-0.371-0.532-0.682-0.918-0.903l-8.31-4.69c-0.774-0.435-1.72-0.429-2.48 0.0247l-8.26 4.77c-0.398 0.236-0.703 0.592-0.902 1.01z" fill="#4285f4"/>
    <path d="m12.1 16.8c0.106-0.0134 0.209-0.0428 0.314-0.091 0.0385-0.0164 0.0746-0.0372 0.115-0.0606l3.53-2.04c0.0271-0.0156 0.0494-0.0286 0.0739-0.0487 0.0714-0.0532 0.128-0.122 0.168-0.199 0.0293-0.0531 0.0474-0.105 0.0651-0.158 0.0153-0.0568 0.0235-0.115 0.02-0.174l-0.0372-4.07c-0.0015-0.179-0.0536-0.353-0.139-0.501-0.0052-0.00904-0.013-0.0225-0.018-0.0315-0.085-0.137-0.206-0.253-0.355-0.335l-3.37-1.9c-0.0195-0.0128-0.0408-0.0186-0.0601-0.0314-0.0408-0.0184-0.0813-0.037-0.124-0.0484-0.0594-0.0197-0.128-0.0342-0.194-0.0442-0.0445-0.00422-0.0889-0.00842-0.131-0.00828-0.0303-4.67e-4 -0.0582 0.00343-0.0857 0.00749-0.0279 0.00406-0.0627 0.00609-0.0947 0.0126-0.0118 7.73e-4 -0.0206 0.00593-0.0324 0.00672-0.101 0.0223-0.199 0.0609-0.293 0.115l-3.35 1.94c-0.0631 0.0364-0.116 0.0793-0.167 0.127-0.0353 0.0323-0.0635 0.0666-0.0917 0.101-0.0129 0.0193-0.0258 0.0387-0.0385 0.0582-0.0174 0.022-0.0275 0.0459-0.0424 0.0724-0.00821 0.0167-0.0166 0.0336-0.025 0.0504-0.0184 0.0406-0.0324 0.0787-0.0511 0.119-0.044 0.121-0.0641 0.253-0.0609 0.383l0.0325 3.87c0.00161 0.0651 0.00564 0.135 0.0188 0.199 0.0192 0.085 0.0496 0.169 0.0892 0.248 0.0103 0.0181 0.0208 0.036 0.0338 0.0585 0.0129 0.0225 0.0234 0.0406 0.0408 0.0604 0.0332 0.0468 0.0733 0.0957 0.115 0.137 0.00966 0.0064 0.015 0.0154 0.0246 0.0219 0.057 0.057 0.125 0.102 0.197 0.144l3.37 1.9c0.0989 0.0567 0.208 0.0897 0.318 0.104 0.0446 0.0042 0.0891 0.0085 0.131 0.0082 0.023-0.0014 0.0419-1.61e-4 0.0651-0.0014 0.0161-0.0034 0.032-0.0066 0.0483-0.01z" fill="#d7effe"/>
    <path d="m16.2 9.48c0.0052 0.00905 0.013 0.0225 0.018 0.0315 0.0857 0.148 0.138 0.322 0.139 0.501l0.0374 4.07c-0.0011 0.0606-0.0047 0.117-0.02 0.174-0.0153 0.0568-0.0377 0.112-0.0652 0.158-0.0422 0.0723-0.0987 0.141-0.167 0.199-0.0245 0.0201-0.047 0.0331-0.0739 0.0487l-3.53 2.04c-0.0359 0.0208-0.0765 0.0441-0.115 0.0606-0.0997 0.0454-0.207 0.0776-0.314 0.091l-0.0311 1.12 0.0161 1.29c0.241-0.0192 0.483-0.0991 0.708-0.229l5.26-3.04c0.304-0.181 0.491-0.511 0.491-0.865l-0.0517-6.07c-0.0042-0.267-0.0754-0.526-0.21-0.748-0.0052-0.00905-0.0103-0.0179-0.013-0.0225-0.671 0.387-1.15 0.668-1.15 0.668z" fill="#041619"/>
    <path d="m5.45 9.18 0.0504 5.78c0.00403 0.537 0.294 1.03 0.766 1.3l5.03 2.84c0.241 0.137 0.505 0.188 0.769 0.168l-0.0185-1.29 0.0311-1.12c-0.0161 0.0034-0.0322 0.0068-0.0485 0.01-0.023 0.0015-0.0462 0.0029-0.0651 0.0016-0.0419 1.61e-4 -0.0863-4e-3 -0.131-0.0084-0.11-0.0142-0.215-0.0498-0.318-0.104l-3.37-1.9c-0.0725-0.0421-0.136-0.0896-0.197-0.144-0.00966-0.0064-0.0148-0.0153-0.0245-0.0217-0.0422-0.0416-0.0797-0.086-0.115-0.137-0.0132-0.0226-0.028-0.0379-0.0409-0.0604-0.0105-0.0181-0.0208-0.036-0.0338-0.0585-0.0396-0.0791-0.0677-0.159-0.0892-0.248-0.0132-0.0644-0.0219-0.131-0.0188-0.199l-0.0327-3.87c-0.00306-0.13 0.0197-0.257 0.061-0.383 0.014-0.0381 0.0325-0.0788 0.0512-0.12 0.00821-0.0167 0.0164-0.0335 0.025-0.0504l-0.931-0.458-1.19-0.661c-0.1 0.232-0.162 0.489-0.156 0.75z" fill="#37bf6e"/>
    <path d="m7.74 9.55c0.0147-0.0265 0.0275-0.0459 0.0424-0.0724 0.0127-0.0193 0.0254-0.0387 0.0383-0.0582 0.0282-0.0342 0.061-0.0711 0.0918-0.101 0.0507-0.0473 0.104-0.09 0.167-0.126l3.35-1.94c0.0944-0.0546 0.192-0.0931 0.293-0.116 0.0116-6.28e-4 0.0206-0.00577 0.0322-0.00656 0.0322-0.00656 0.0599-0.0106 0.0947-0.0126 0.0277-0.00404 0.058-0.00358 0.0858-0.00763 0.0417-1.61e-4 0.0863 0.0042 0.131 0.00842 0.0659 0.00999 0.127 0.0226 0.194 0.0442 0.0427 0.0114 0.0831 0.0298 0.124 0.0484 0.0195 0.0128 0.0408 0.0184 0.0601 0.0312l3.37 1.9c0.145 0.0844 0.266 0.201 0.355 0.335l0.932-0.538s0.477-0.276 1.15-0.668c-0.129-0.213-0.312-0.395-0.541-0.521l-5.03-2.84c-0.47-0.263-1.04-0.256-1.5 0.0164l-5.01 2.89c-0.24 0.145-0.423 0.358-0.544 0.608l1.19 0.661z" fill="#3870b2"/>
  </g>
</svg>
