<svg width="24" height="24" version="1.1" viewBox="0 0 24 24" xmlns="http://www.w3.org/2000/svg">
  <defs>
    <clipPath id="a">
      <path d="m0 0.113h91.9v91.9h-91.9z"/>
    </clipPath>
  </defs>
  <g transform="matrix(.251 0 0 .251 .466 .448)" clip-path="url(#a)">
    <path d="m90.2 42-40.1-40.1a5.92 5.92 0 0 0-8.37 0l-8.33 8.33 10.6 10.6a7.03 7.03 0 0 1 7.23 1.68 7.03 7.03 0 0 1 1.67 7.28l10.2 10.2a7.03 7.03 0 0 1 7.28 1.67 7.04 7.04 0 0 1 0 9.96 7.05 7.05 0 0 1-9.96 0 7.04 7.04 0 0 1-1.53-7.66l-9.5-9.5v25a7.04 7.04 0 0 1 1.86 11.3 7.04 7.04 0 0 1-9.96 0 7.04 7.04 0 0 1 0-9.96 7.06 7.06 0 0 1 2.3-1.54v-25.2a7.05 7.05 0 0 1-3.82-9.23l-10.4-10.4-27.5 27.5a5.92 5.92 0 0 0 0 8.37l40.1 40.1a5.92 5.92 0 0 0 8.37 0l39.9-39.9a5.92 5.92 0 0 0 0-8.37" fill="#f03c2e"/>
  </g>
</svg>
