<svg width="24" height="24" version="1.1" viewBox="0 0 24 24" xmlns="http://www.w3.org/2000/svg">
  <path fill="#45494f" d="m12 1.44c-5.95 0-10.7 4.84-10.7 10.8 0 4.78 3.08 8.84 7.35 10.3 0.534 0.107 0.729-0.233 0.729-0.519 0-0.251-0.0176-1.11-0.0176-2.01-2.99 0.645-3.61-1.29-3.61-1.29-0.48-1.26-1.19-1.58-1.19-1.58-0.976-0.663 0.0713-0.663 0.0713-0.663 1.08 0.0718 1.66 1.11 1.66 1.11 0.961 1.65 2.51 1.18 3.13 0.896 0.0889-0.699 0.374-1.18 0.677-1.45-2.38-0.251-4.89-1.18-4.89-5.34 0-1.18 0.427-2.15 1.1-2.9-0.106-0.269-0.48-1.38 0.107-2.87 0 0 0.908-0.287 2.96 1.11a10.3 10.3 0 0 1 2.69-0.358c0.908 0 1.84 0.126 2.69 0.358 2.05-1.4 2.96-1.11 2.96-1.11 0.588 1.48 0.214 2.6 0.106 2.87 0.694 0.753 1.1 1.72 1.1 2.9 0 4.16-2.51 5.08-4.91 5.34 0.392 0.341 0.729 0.986 0.729 2.01 0 1.45-0.0176 2.62-0.0176 2.98 0 0.287 0.196 0.628 0.729 0.52 4.27-1.44 7.35-5.49 7.35-10.3 0.0176-5.99-4.8-10.8-10.7-10.8z"/>
</svg>
