<svg width="24" height="24" viewBox="0 0 24 24" xmlns="http://www.w3.org/2000/svg">
    <defs>
        <linearGradient id="a" x1="5.754" x2="22.242" y1="12" y2="12" gradientUnits="userSpaceOnUse">
            <stop offset="0" stop-color="#f54606"/>
            <stop offset="1" stop-color="#f9061a"/>
        </linearGradient>
        <clipPath id="b">
            <path d="M-205.3 102.6c-3.086 0-6.17 1.167-8.502 3.498-4.662 4.662-4.662 12.34 0 17.01 4.662 4.662 12.34 4.662 17.01 0l-2.834-2.836c-3.097 3.097-8.241 3.097-11.34 0-3.097-3.097-3.097-8.238 0-11.34 1.548-1.548 3.608-2.324 5.668-2.324s4.121.775 5.67 2.324l2.834-2.834c-2.331-2.331-5.418-3.498-8.504-3.498z"/>
        </clipPath>
        <filter id="c" width="1.407" height="1.42" x="-.204" y="-.21" color-interpolation-filters="sRGB">
            <feFlood flood-opacity=".6" result="flood"/>
            <feGaussianBlur in="SourceGraphic" result="blur" stdDeviation="1.4"/>
            <feOffset in="blur" result="offset"/>
            <feComposite in="flood" in2="offset" operator="in" result="comp1"/>
            <feComposite in="comp1" in2="comp1" operator="atop" result="comp2"/>
        </filter>
    </defs>
    <path fill="#f72406" d="M13.75 0c-3.086 0-6.17 1.167-8.502 3.498-4.662 4.662-4.662 12.34 0 17.01 4.662 4.662 12.34 4.662 17.01 0l-2.834-2.836c-3.097 3.097-8.241 3.097-11.34 0-3.097-3.097-3.097-8.238 0-11.34 1.548-1.548 3.608-2.324 5.668-2.324s4.121.775 5.67 2.324l2.834-2.834C19.925 1.167 16.838 0 13.752 0z"/>
    <path clip-path="url(#b)" filter="url(#c)" transform="translate(219.1 -102.6)" d="M-205.3 106.7c-2.06 0-4.119.775-5.668 2.324-3.097 3.097-3.097 8.238 0 11.34 3.097 3.097 8.241 3.097 11.34 0l2.834-2.834-2.834-2.832-2.834 2.834c-1.599 1.599-4.069 1.599-5.668 0s-1.599-4.069 0-5.668 4.069-1.599 5.668 0l2.834 2.834 2.834-2.836-2.834-2.834c-1.548-1.549-3.61-2.324-5.67-2.324z"/>
    <path fill="url(#a)" d="M13.75 4.009c-2.06 0-4.119.775-5.668 2.324-3.097 3.097-3.097 8.238 0 11.34 3.097 3.097 8.241 3.097 11.34 0l2.834-2.834-2.834-2.832-2.834 2.834c-1.599 1.599-4.069 1.599-5.668 0s-1.599-4.069 0-5.668 4.069-1.599 5.668 0l2.834 2.834 2.834-2.836-2.834-2.834c-1.548-1.548-3.61-2.324-5.67-2.324z"/>
</svg>
