<svg width="24" height="24" version="1.1" viewBox="0 0 24 24" xmlns="http://www.w3.org/2000/svg">
  <defs>
    <linearGradient id="r" x1="237" x2="236" y1="158" y2="163" gradientTransform="matrix(.126 0 0 .126 -17.1 1.45)" gradientUnits="userSpaceOnUse" spreadMethod="reflect">
      <stop stop-color="#f68000" offset="0"/>
      <stop stop-color="#fd9800" offset="1"/>
    </linearGradient>
    <linearGradient id="q" x1="-114" x2="412" y1="462" y2="463" gradientTransform="matrix(.0355 0 0 .0355 5.74 5.95)" gradientUnits="userSpaceOnUse">
      <stop stop-color="#ffb900" offset="0"/>
      <stop stop-color="#ffd76b" offset="1"/>
    </linearGradient>
    <linearGradient id="o" x1="105" x2="165" y1="12.6" y2="27.4" gradientTransform="matrix(.0355 0 0 .0355 5.74 5.95)" gradientUnits="userSpaceOnUse">
      <stop stop-color="#a1abb2" offset="0"/>
      <stop stop-color="#eaeced" offset=".148"/>
      <stop stop-color="#bbc0c9" offset="1"/>
    </linearGradient>
    <linearGradient id="m" x1="44.1" x2="278" y1="229" y2="291" gradientTransform="matrix(.0355 0 0 .0355 5.74 5.95)" gradientUnits="userSpaceOnUse">
      <stop stop-color="#a1abb2" offset="0"/>
      <stop stop-color="#eaeced" offset=".083"/>
      <stop stop-color="#b8bec7" offset="1"/>
    </linearGradient>
    <linearGradient id="l" x1="115" x2="262" y1="70.1" y2="55.4" gradientTransform="matrix(.0355 0 0 .0355 5.74 5.95)" gradientUnits="userSpaceOnUse">
      <stop stop-color="#f48200" stop-opacity="0" offset="0"/>
      <stop stop-color="#f48200" stop-opacity=".728" offset=".589"/>
      <stop stop-color="#cc5f00" offset=".816"/>
      <stop stop-color="#a43d00" offset="1"/>
    </linearGradient>
    <linearGradient id="k" x1="64.8" x2="93.5" y1="102" y2="109" gradientTransform="matrix(.0355 0 0 .0355 5.74 5.95)" gradientUnits="userSpaceOnUse">
      <stop stop-color="#9b4400" offset="0"/>
      <stop stop-color="#e56300" offset="1"/>
    </linearGradient>
    <linearGradient id="j" x1="40.8" x2="44.4" y1="100" y2="125" gradientTransform="matrix(.126 0 0 .128 5.74 5.77)" gradientUnits="userSpaceOnUse">
      <stop stop-color="#e26400" offset="0"/>
      <stop stop-color="#ffb900" offset="1"/>
    </linearGradient>
    <filter id="s" x="-.0254" y="-.0915" width="1.05" height="1.18" color-interpolation-filters="sRGB">
      <feGaussianBlur stdDeviation="1.1354669"/>
    </filter>
  </defs>
  <g fill-rule="evenodd" stroke-width=".0287">
    <path d="m2.75 21.5s-0.311 0.335-0.393 0.607c-0.0574 0.19-0.0798 0.473 0.0238 0.643 0.076 0.124 0.176 0.25 0.321 0.25 6.33 9.23e-4 13.3 0.0102 18.3 0.0238 0.167 4.57e-4 0.483-0.0288 0.613-0.214 0.132-0.189 0.129-0.61 0.0357-0.821-0.0982-0.222-0.559-0.321-0.559-0.321z" fill="#cb5600"/>
    <path d="m5.08 14.8c-0.289 0-0.59 0.223-0.673 0.5l-2.02 6.7c-0.0838 0.278 0.0813 0.502 0.371 0.502h18.6c0.22 0 0.347-0.17 0.283-0.381l-2.09-6.94c-0.0639-0.211-0.292-0.381-0.513-0.381z" fill="url(#j)"/>
    <path d="m12 1c-0.481-0.00484-0.764 0.0309-1.05 0.244-0.129 0.0973-0.232 0.328-0.293 0.495l-4.94 16.3s0.115 0.736 0.813 1.41c0.471 0.451 1.36 0.785 1.92 0.907 1.44 0.312 2.59 0.386 3.9 0.367 1.34-0.0203 2.68-0.284 3.97-0.653 1.92-0.55 1.98-2.09 1.98-2.09l-5.08-16.5c-0.0209-0.0681-0.0718-0.118-0.112-0.156-0.302-0.286-0.758-0.276-1.13-0.28z" fill="url(#k)"/>
    <path d="m12 1c-0.481-0.00484-0.764 0.0309-1.05 0.244-0.129 0.0973-0.232 0.328-0.293 0.495l-4.94 16.3s0.217 1.41 1.96 2.1c1.21 0.475 2.46 0.538 4.4 0.559 2.16 0.0231 3.04-0.189 4.46-0.682 0.665-0.232 1.01-0.534 1.33-0.869 0.456-0.484 0.444-1.17 0.444-1.17l-5.08-16.5c-0.0343-0.0624-0.0718-0.118-0.112-0.156-0.302-0.286-0.758-0.276-1.13-0.28z" fill="url(#l)"/>
    <path d="m7.51 12.1-1.13 3.72c1.37 1.15 3.38 1.88 5.62 1.88 2.25 0 4.26-0.735 5.63-1.9l-1.14-3.7c-1.05 0.834-2.67 1.37-4.49 1.37-1.83 0-3.45-0.54-4.5-1.38z" fill="url(#m)"/>
    <path d="m14 4.08c-0.533 0.179-1.26 0.29-2.06 0.29-0.79 0-1.51-0.107-2.04-0.281l-1.19 3.93c0.8 0.419 1.97 0.683 3.28 0.683 1.28 0 2.43-0.253 3.23-0.658z" fill="url(#o)"/>
    <path d="m11.3 1.66c0.154 0.029 0.285 0.231 0.269 0.387-0.568 5.53-1.24 11.5-1.77 16.9 0 0-0.0591 0.37-0.202 0.454-0.602 0.354-1.46 0.126-2.09-0.185-0.427-0.212-0.821-0.604-0.959-1.06-0.143-0.472 0.0968-0.986 0.219-1.46 1.25-4.88 2.89-10.3 4.09-14.7 0.0457-0.17 0.265-0.327 0.438-0.295z" fill="#fff" opacity=".106"/>
  </g>
  <path d="m12.9 1.16a0.867 0.137 0 1 1-1.73 0 0.867 0.137 0 1 1 1.73 0z" fill="#cb5c00" stroke-width=".0287"/>
  <g fill-rule="evenodd">
    <path d="m2.38 22.1s0.0605 0.152 0.198 0.216c0.116 0.0532 0.557 0.0344 0.557 0.0344s12.2 1.5e-5 18.1 0c0.0976-2.9e-5 0.201-0.0015 0.29-0.042 0.0957-0.0436 0.114-0.149 0.114-0.149s0.0469 0.185-0.0605 0.299c-0.0761 0.0808-0.212 0.082-0.323 0.082-6.01 0.0014-12.3 0-18.4 0-0.158-5.8e-5 -0.355 0.0138-0.461-0.103-0.144-0.158-0.0916-0.338-0.0916-0.338z" fill="url(#q)" stroke-width=".0287"/>
    <path d="m17.7 20.1c-0.312 0.894-0.269 1.46-0.875 1.75-1.42 0.671-2.97 0.515-4.49 0.539-1.55 0.024-3.13 0.0148-4.65-0.32-0.399-0.088-0.709-0.505-0.842-0.892-0.087-0.254-0.287-0.466-0.252-0.842 0.00887-0.0955 0.11-0.155 0.204-0.172 0.0828-0.015 0.219-0.0157 0.318 0.0714 0.215 0.19 0.354 0.458 0.539 0.496 1.51 0.313 3.09 0.454 4.75 0.463 1.23 0.0066 2.13-6e-3 3.32-0.337 0.198-0.0551 0.754-0.156 0.926-0.269 0.0994-0.0659 0.174-0.164 0.269-0.236 0.176-0.132 0.337-0.336 0.555-0.353 0.0852-0.0069 0.264 0.0203 0.236 0.101z" fill="url(#r)" opacity=".709" stroke-width=".126"/>
    <path transform="matrix(.126 0 0 .126 5.74 5.95)" d="m-1.07 89.8s-2.62 1.89-2.98 4.29c-0.607 4.06 4 9.69 6.52 12.9 2.72 3.48 8.26 5.93 12.3 7.64 6.36 2.66 13.3 3.64 20.2 4.41 6.58 0.742 14.6 0.46 21.2 0 6.81-0.474 15.7-1.1 18.9-1.7 7.18-1.36 12.8-3.48 18-7 2.24-1.5 5.27-4.52 6.71-6.8 1.1-1.74 3.16-5.32 3.25-7.38 0.0503-1.16-2.97-3.55-2.97-3.55s-1.59 10.8-16.4 17.1c-8.53 3.66-17.9 4.73-27.2 5.27-8.96 0.513-20.1 0.157-28.9-1.65-6.51-1.34-11.9-3.78-17.8-6.81-6.2-3.17-9.37-11.5-10.6-14.8-0.94-2.48-0.358-1.98-0.358-1.98z" fill="#ee6900" filter="url(#s)"/>
  </g>
</svg>
