<svg width="24" height="24" version="1.1" viewBox="0 0 24 24" xmlns="http://www.w3.org/2000/svg" xmlns:xlink="http://www.w3.org/1999/xlink">
  <defs>
    <linearGradient id="linearGradient25" x1="12" x2="12" y1="24" y2="4.16" gradientUnits="userSpaceOnUse">
      <stop stop-color="#b22f20" offset="0"/>
      <stop stop-color="#dc2f1f" offset="1"/>
    </linearGradient>
  </defs>
  <g fill="url(#linearGradient25)">
    <path d="m7.84 17.6v1.66h8.32v-1.66h-7.49z" color="#000000" stroke-linecap="square" style="-inkscape-stroke:none"/>
    <path d="m12 17.6a0.832 0.832 0 0 0-0.832 0.832v4.75a0.832 0.832 0 0 0 0.832 0.832 0.832 0.832 0 0 0 0.832-0.832v-4.75a0.832 0.832 0 0 0-0.832-0.832z" color="#000000" stroke-linecap="round" style="-inkscape-stroke:none"/>
    <path d="m12 0c-2.29 6.87e-8 -4.16 1.87-4.16 4.16 0 2.29 1.87 4.16 4.16 4.16 2.29 1e-7 4.16-1.87 4.16-4.16 0-2.29-1.87-4.16-4.16-4.16zm0 1.66c1.39 0 2.5 1.11 2.5 2.5 0 1.39-1.11 2.5-2.5 2.5s-2.5-1.11-2.5-2.5c0-1.39 1.11-2.5 2.5-2.5z" color="#000000" stroke-linejoin="round" style="-inkscape-stroke:none"/>
    <path d="m13.1 4.16a1.11 1.11 0 0 1-1.11 1.11 1.11 1.11 0 0 1-1.11-1.11 1.11 1.11 0 0 1 1.11-1.11 1.11 1.11 0 0 1 1.11 1.11z" stroke-linejoin="round" stroke-width="1.66"/>
    <path d="m1.22 9.78c-1.05 1.05-1.46 2.58-1.08 4.02 0.384 1.43 1.51 2.56 2.94 2.94 1.43 0.384 2.97-0.0267 4.02-1.08l2.35-2.35a0.832 0.832 45 0 0-1.55e-4 -1.18 0.832 0.832 45 0 0-1.18-1.53e-4l-2.35 2.35c-0.631 0.631-1.55 0.876-2.41 0.645-0.862-0.231-1.53-0.902-1.76-1.76-0.231-0.862 0.0133-1.78 0.645-2.41l2.35-2.35a0.832 0.832 45 0 0-1.53e-4 -1.18 0.832 0.832 45 0 0-1.18-1.53e-4z" color="#000000" style="-inkscape-stroke:none"/>
    <path d="m11.6 15.9c1.05-1.05 1.46-2.58 1.08-4.02-0.384-1.43-1.51-2.56-2.94-2.94-1.43-0.384-2.97 0.0267-4.02 1.08l-2.35 2.35c-0.325 0.325-0.325 0.851 1.54e-4 1.18 0.325 0.325 0.852 0.325 1.18 1.53e-4l2.35-2.35c0.631-0.631 1.55-0.876 2.41-0.645 0.862 0.231 1.53 0.902 1.76 1.76 0.231 0.862-0.0133 1.78-0.645 2.41l-2.35 2.35c-0.325 0.325-0.325 0.851 1.53e-4 1.18 0.325 0.325 0.852 0.325 1.18 1.54e-4z" color="#000000" style="-inkscape-stroke:none"/>
    <path d="m22.8 9.78c1.05 1.05 1.46 2.58 1.08 4.02-0.384 1.43-1.51 2.56-2.94 2.94-1.43 0.384-2.97-0.0267-4.02-1.08l-2.35-2.35a0.832 0.832 45 0 1 1.54e-4 -1.18 0.832 0.832 45 0 1 1.18-1.53e-4l2.35 2.35c0.631 0.631 1.55 0.876 2.41 0.645 0.862-0.231 1.53-0.902 1.76-1.76 0.231-0.862-0.0133-1.78-0.645-2.41l-2.35-2.35a0.832 0.832 45 0 1 1.52e-4 -1.18 0.832 0.832 45 0 1 1.18-1.53e-4z" color="#000000" style="-inkscape-stroke:none"/>
    <path d="m12.4 15.9c-1.05-1.05-1.46-2.58-1.08-4.02 0.384-1.43 1.51-2.56 2.94-2.94 1.43-0.384 2.97 0.0267 4.02 1.08l2.35 2.35a0.832 0.832 45 0 1-1.55e-4 1.18 0.832 0.832 45 0 1-1.18 1.53e-4l-2.35-2.35c-0.631-0.631-1.55-0.876-2.41-0.645-0.862 0.231-1.53 0.902-1.76 1.76-0.231 0.862 0.0133 1.78 0.645 2.41l2.35 2.35a0.832 0.832 45 0 1-1.54e-4 1.18 0.832 0.832 45 0 1-1.18 1.54e-4z" color="#000000" style="-inkscape-stroke:none"/>
  </g>
</svg>
