<svg width="512" height="512" viewBox="0 0 512 512" xmlns="http://www.w3.org/2000/svg">
    <defs>
        <linearGradient id="a" x1="5.754" x2="22.242" y1="12" y2="12" gradientTransform="matrix(5.989 0 0 5.989 179.9 184.1)" gradientUnits="userSpaceOnUse">
            <stop offset="0" stop-color="#06c5f5"/>
            <stop offset="1" stop-color="#0694f9"/>
        </linearGradient>
        <clipPath id="b">
            <path d="M-205.3 102.6c-3.086 0-6.17 1.167-8.502 3.498-4.662 4.662-4.662 12.34 0 17.01 4.662 4.662 12.34 4.662 17.01 0l-2.834-2.836c-3.097 3.097-8.241 3.097-11.34 0-3.097-3.097-3.097-8.238 0-11.34 1.548-1.548 3.608-2.324 5.668-2.324s4.121.775 5.67 2.324l2.834-2.834c-2.331-2.331-5.418-3.498-8.504-3.498z"/>
        </clipPath>
        <filter id="c" width="1.407" height="1.42" x="-.204" y="-.21" color-interpolation-filters="sRGB">
            <feFlood flood-opacity=".6" result="flood"/>
            <feGaussianBlur in="SourceGraphic" result="blur" stdDeviation="1.4"/>
            <feOffset in="blur" result="offset"/>
            <feComposite in="flood" in2="offset" operator="in" result="comp1"/>
            <feComposite in="comp1" in2="comp1" operator="atop" result="comp2"/>
        </filter>
    </defs>
    <path fill="#e6f6fe" stroke="#06a2f7" stroke-width="2.5" d="m256 129c14.1 0.148 17.2 13.3 30.7 16.9 12.7 3.39 21.5-6.6 32.7 0.102 12.1 7.15 8.25 20.1 18.1 30 9.25 9.25 21.9 5.05 28.3 16.4 6.9 12.2-2.9 21.5 0.725 35 3.39 12.7 16.4 15.3 16.3 28.4-0.148 14.1-13.3 17.2-16.9 30.7-3.39 12.7 6.6 21.5-0.102 32.7-7.15 12.1-20.1 8.25-30 18.1-9.25 9.25-5.05 21.9-16.4 28.3-12.2 6.9-21.5-2.9-35 0.725-12.7 3.39-15.3 16.4-28.4 16.3-14.1-0.148-17.2-13.3-30.7-16.9-12.7-3.39-21.5 6.6-32.7-0.102-12.1-7.15-8.25-20.1-18.1-30-9.25-9.25-21.9-5.05-28.3-16.4-6.9-12.2 2.9-21.5-0.725-35-3.39-12.7-16.4-15.3-16.3-28.4 0.148-14.1 13.3-17.2 16.9-30.7 3.39-12.7-6.6-21.5 0.102-32.7 7.15-12.1 20.1-8.25 30-18.1 9.25-9.25 5.05-21.9 16.4-28.3 12.2-6.9 21.5 2.9 35-0.725 12.7-3.39 15.3-16.4 28.4-16.3z"/>
    <path fill="#06a2f7" d="M262.3 184.1c-18.48 0-36.95 6.99-50.92 20.95-27.92 27.92-27.92 73.91 0 101.9 27.92 27.92 73.91 27.92 101.9 0l-16.97-16.99c-18.55 18.55-49.36 18.55-67.92 0-18.55-18.55-18.55-49.34 0-67.92 9.272-9.272 21.61-13.92 33.95-13.92 12.34 0 24.68 4.642 33.96 13.92l16.97-16.97c-13.96-13.96-32.45-20.95-50.93-20.95z"/>
    <path clip-path="url(#b)" filter="url(#c)" transform="matrix(5.989 0 0 5.989 1492 -430.4)" d="m-205.3 106.7c-2.06 0-4.119 0.775-5.668 2.324-3.097 3.097-3.097 8.238 0 11.34 3.097 3.097 8.241 3.097 11.34 0l2.834-2.834-2.834-2.832-2.834 2.834c-1.599 1.599-4.069 1.599-5.668 0s-1.599-4.069 0-5.668 4.069-1.599 5.668 0l2.834 2.834 2.834-2.836-2.834-2.834c-1.548-1.549-3.61-2.324-5.67-2.324z"/>
    <path fill="url(#a)" d="M262.3 208.1c-12.34 0-24.67 4.642-33.95 13.92-18.55 18.55-18.55 49.34 0 67.92 18.55 18.55 49.36 18.55 67.92 0l16.97-16.97-16.97-16.96-16.97 16.97c-9.577 9.577-24.37 9.577-33.95 0-9.577-9.577-9.577-24.37 0-33.95 9.577-9.577 24.37-9.577 33.95 0l16.97 16.97 16.97-16.99-16.97-16.97c-9.272-9.272-21.62-13.92-33.96-13.92z"/>
</svg>
