<svg width="512" height="512" viewBox="0 0 512 512" xmlns="http://www.w3.org/2000/svg">
    <defs>
        <linearGradient id="a" x1="5.754" x2="22.242" y1="12" y2="12" gradientTransform="matrix(11.2 0 0 11.19 115.3 121.6)" gradientUnits="userSpaceOnUse">
            <stop offset="0" stop-color="#06c5f5"/>
            <stop offset="1" stop-color="#0694f9"/>
        </linearGradient>
        <clipPath id="b">
            <path d="M-205.3 102.6c-3.086 0-6.17 1.167-8.502 3.498-4.662 4.662-4.662 12.34 0 17.01 4.662 4.662 12.34 4.662 17.01 0l-2.834-2.836c-3.097 3.097-8.241 3.097-11.34 0-3.097-3.097-3.097-8.238 0-11.34 1.548-1.548 3.608-2.324 5.668-2.324s4.121 0.775 5.67 2.324l2.834-2.834c-2.331-2.331-5.418-3.498-8.504-3.498z"/>
        </clipPath>
        <filter id="c" width="1.407" height="1.42" x="-.204" y="-.21" color-interpolation-filters="sRGB">
            <feFlood flood-opacity=".6" result="flood"/>
            <feGaussianBlur in="SourceGraphic" result="blur" stdDeviation="1.4"/>
            <feOffset in="blur" result="offset"/>
            <feComposite in="flood" in2="offset" operator="in" result="comp1"/>
            <feComposite in="comp1" in2="comp1" operator="atop" result="comp2"/>
        </filter>
    </defs>
    <g transform="matrix(1.87 0 0 1.87 797 -428)">
        <path fill="#e6f6fe" stroke="#06a2f7" stroke-width="2.5" d="m-289 238c14.1 0.148 17.2 13.3 30.7 16.9 12.7 3.39 21.5-6.6 32.7 0.102 12.1 7.15 8.25 20.1 18.1 30 9.25 9.25 21.9 5.05 28.3 16.4 6.9 12.2-2.9 21.5 0.725 35 3.39 12.7 16.4 15.3 16.3 28.4-0.148 14.1-13.3 17.2-16.9 30.7-3.39 12.7 6.6 21.5-0.102 32.7-7.15 12.1-20.1 8.25-30 18.1-9.25 9.25-5.05 21.9-16.4 28.3-12.2 6.9-21.5-2.9-35 0.725-12.7 3.39-15.3 16.4-28.4 16.3-14.1-0.148-17.2-13.3-30.7-16.9-12.7-3.39-21.5 6.6-32.7-0.102-12.1-7.15-8.25-20.1-18.1-30-9.25-9.25-21.9-5.05-28.3-16.4-6.9-12.2 2.9-21.5-0.725-35-3.39-12.7-16.4-15.3-16.3-28.4 0.148-14.1 13.3-17.2 16.9-30.7 3.39-12.7-6.6-21.5 0.102-32.7 7.15-12.1 20.1-8.25 30-18.1 9.25-9.25 5.05-21.9 16.4-28.3 12.2-6.9 21.5 2.9 35-0.725 12.7-3.39 15.3-16.4 28.4-16.3z"/>
    </g>
    <path fill="#06a2f7" d="M269.3 121.6c-34.55 0-69.07 13.06-95.18 39.16-52.19 52.19-52.19 138.1 0 190.4 52.19 52.19 138.1 52.19 190.4 0l-31.73-31.75c-34.67 34.67-92.26 34.67-127 0-34.67-34.67-34.67-92.22 0-126.9 17.33-17.33 40.39-26.02 63.45-26.02 23.06 0 46.13 8.676 63.48 26.02l31.73-31.73c-26.1-26.09-60.65-39.16-95.2-39.16z"/>
    <path clip-path="url(#b)" filter="url(#c)" transform="matrix(11.2 0 0 11.19 2568 -1027)" d="m-205.3 106.7c-2.06 0-4.119 0.775-5.668 2.324-3.097 3.097-3.097 8.238 0 11.34 3.097 3.097 8.241 3.097 11.34 0l2.834-2.834-2.834-2.832-2.834 2.834c-1.599 1.599-4.069 1.599-5.668 0s-1.599-4.069 0-5.668 4.069-1.599 5.668 0l2.834 2.834 2.834-2.836-2.834-2.834c-1.548-1.549-3.61-2.324-5.67-2.324z"/>
    <path fill="url(#a)" d="M269.3 166.5c-23.06 0-46.11 8.676-63.45 26.02-34.67 34.67-34.67 92.22 0 126.9 34.67 34.67 92.26 34.67 127 0l31.73-31.73-31.73-31.7-31.73 31.73c-17.9 17.9-45.55 17.9-63.45 0-17.9-17.9-17.9-45.55 0-63.45 17.9-17.9 45.55-17.9 63.45 0l31.73 31.73 31.73-31.75-31.73-31.73c-17.33-17.33-40.41-26.02-63.48-26.02z"/>
</svg>
