<svg viewBox="0 0 512 512" width="512" height="512" xmlns="http://www.w3.org/2000/svg">
<path fill="#e6f6fe" stroke="#06a2f7" stroke-width="2.5"
      d="m220.76 243.21c0-11.307 7.3389-21.306 18.126-24.696l75.478-23.719c8.9842-2.8233 18.126 3.8865 18.126 13.304v58.639c-8.9534-2.2507-19.091-1.8338-28.736 1.1816-23.38 7.3475-37.797 27.74-32.201 45.547 5.596 17.808 29.086 26.287 52.467 18.939 23.38-7.3475 32.201-27.638 32.201-45.547v-138.53c0-9.4174-9.1419-16.127-18.126-13.304l-122.94 38.635c-10.787 3.39-18.126 13.389-18.126 24.696v110.96c-8.9534-2.2507-19.091-1.8338-28.736 1.1816-23.38 7.3475-37.797 27.74-32.201 45.547 5.596 17.808 29.086 26.287 52.467 18.939 23.38-7.3475 32.201-27.357 32.201-45.547z"/>
</svg>
