<?xml version="1.0" encoding="UTF-8"?>
<svg version="1.1" viewBox="0 0 320 320" xmlns="http://www.w3.org/2000/svg">
 <g fill="none" stroke-width="2">
  <rect x="116" y="30.8" width="87.5" height="36.5" stroke="#1fa4d3"/>
  <rect x="116" y="105" width="87.5" height="36.5" stroke="#1fa4d3"/>
  <rect x="116" y="179" width="87.5" height="36.5" stroke="#d36b1f"/>
  <rect x="116" y="253" width="87.5" height="36.5" stroke="#86d31f"/>
 </g>
 <path d="m64.4 239q0 .799-.664 1.31-.658.512-1.8.512-.648 0-1.19-.152-.538-.157-.904-.34v-1.1h.0522q.465.35 1.03.559.569.204 1.09.204.648 0 1.01-.209.366-.209.366-.658 0-.345-.199-.522t-.763-.303q-.209-.047-.549-.11-.334-.0627-.611-.136-.768-.204-1.09-.596-.319-.397-.319-.972 0-.36.146-.679.152-.319.455-.569.293-.246.742-.387.455-.146 1.01-.146.522 0 1.06.131.538.125.893.308v1.05h-.0522q-.376-.277-.914-.465-.538-.193-1.06-.193-.538 0-.909.209-.371.204-.371.611 0 .36.225.543.219.183.711.298.272.0627.606.125.34.0627.564.115.684.157 1.06.538.371.387.371 1.02zm-5.57 0q0 .799-.664 1.31-.658.512-1.8.512-.648 0-1.19-.152-.538-.157-.904-.34v-1.1h.0522q.465.35 1.03.559.569.204 1.09.204.648 0 1.01-.209.366-.209.366-.658 0-.345-.199-.522-.199-.178-.763-.303-.209-.047-.549-.11-.334-.0627-.611-.136-.768-.204-1.09-.596-.319-.397-.319-.972 0-.36.146-.679.152-.319.455-.569.293-.246.742-.387.455-.146 1.01-.146.522 0 1.06.131.538.125.893.308v1.05h-.0522q-.376-.277-.914-.465-.538-.193-1.06-.193-.538 0-.909.209-.371.204-.371.611 0 .36.225.543.219.183.711.298.272.0627.606.125.34.0627.564.115.684.157 1.06.538.371.387.371 1.02zm-5.66-1.13h-4.3q0 .538.162.94.162.397.444.653.272.251.643.376.376.125.825.125.596 0 1.2-.235.606-.24.862-.47h.0522v1.07q-.496.209-1.01.35-.517.141-1.09.141-1.45 0-2.27-.784-.815-.789-.815-2.24 0-1.43.778-2.27.784-.841 2.06-.841 1.18 0 1.82.69.643.69.643 1.96zm-.956-.752q-.0052-.773-.392-1.2-.381-.423-1.17-.423t-1.26.465q-.465.465-.528 1.15zm-4.85-1.2h-.0522q-.219-.0522-.428-.0731-.204-.0261-.486-.0261-.455 0-.878.204-.423.199-.815.517v4.14h-.982v-5.84h.982v.862q.585-.47 1.03-.664.449-.199.914-.199.256 0 .371.0157.115.0104.345.047zm-5.57 4.1q0 1.48-.674 2.18-.674.695-2.07.695-.465 0-.909-.0679-.439-.0627-.867-.183v-1h.0522q.24.094.763.23.522.141 1.04.141.502 0 .831-.12t.512-.334q.183-.204.261-.491.0784-.287.0784-.643v-.533q-.444.355-.852.533-.402.172-1.03.172-1.04 0-1.66-.752-.611-.758-.611-2.13 0-.752.209-1.3.214-.549.58-.946.34-.371.825-.575.486-.209.967-.209.507 0 .846.104.345.0993.726.308l.0627-.251h.92zm-.982-.94v-3.18q-.392-.178-.731-.251-.334-.0784-.669-.0784-.81 0-1.27.543-.465.543-.465 1.58 0 .982.345 1.49.345.507 1.14.507.428 0 .857-.162.434-.167.794-.444zm-5.27-1.31q0 1.43-.731 2.25-.731.825-1.96.825-1.24 0-1.97-.825-.726-.825-.726-2.25t.726-2.25q.731-.831 1.97-.831 1.23 0 1.96.831.731.825.731 2.25zm-1.01 0q0-1.13-.444-1.68-.444-.554-1.23-.554-.799 0-1.24.554-.439.549-.439 1.68 0 1.1.444 1.67.444.564 1.24.564.784 0 1.23-.559.449-.564.449-1.67zm-4.89-1.85h-.0522q-.219-.0522-.428-.0731-.204-.0261-.486-.0261-.455 0-.878.204-.423.199-.815.517v4.14h-.982v-5.84h.982v.862q.585-.47 1.03-.664.449-.199.914-.199.256 0 .371.0157.115.0104.345.047zm-4.93-.664q0 .517-.183.961-.178.439-.502.763-.402.402-.951.606-.549.199-1.38.199h-1.03v2.9h-1.03v-7.78h2.11q.7 0 1.19.12.486.115.862.366.444.298.684.742.246.444.246 1.12zm-1.08.0261q0-.402-.141-.7t-.428-.486q-.251-.162-.575-.23-.319-.0731-.81-.0731h-1.02v3.11h.873q.627 0 1.02-.11.392-.115.637-.36.246-.251.345-.528.104-.277.104-.622z"/>
 <path d="m281 242h-1.3l-2.34-2.55-.637.606v1.95h-.982v-8.13h.982v5.21l2.84-2.92h1.24l-2.71 2.7zm-6.79-2.82h-4.3q0 .538.162.94.162.397.444.653.272.251.643.376.376.125.825.125.596 0 1.2-.235.606-.24.862-.47h.0523v1.07q-.496.209-1.01.35-.517.141-1.09.141-1.45 0-2.27-.784-.815-.789-.815-2.24 0-1.43.778-2.27.784-.841 2.06-.841 1.18 0 1.82.69.643.69.643 1.96zm-.956-.752q-.005-.773-.392-1.2-.381-.423-1.17-.423-.789 0-1.26.465-.465.465-.528 1.15zm-5.42.752h-4.3q0 .538.162.94.162.397.444.653.272.251.643.376.376.125.825.125.596 0 1.2-.235.606-.24.862-.47h.0522v1.07q-.496.209-1.01.35t-1.09.141q-1.45 0-2.27-.784-.815-.789-.815-2.24 0-1.43.778-2.27.784-.841 2.06-.841 1.18 0 1.82.69.643.69.643 1.96zm-.956-.752q-.005-.773-.392-1.2-.381-.423-1.17-.423-.789 0-1.26.465-.465.465-.528 1.15zm-5.51 1.35q0 .455-.214.899-.209.444-.59.752-.418.334-.977.522-.554.188-1.34.188-.841 0-1.52-.157-.669-.157-1.36-.465v-1.3h.0731q.59.491 1.36.758.773.266 1.45.266.961 0 1.49-.36.538-.36.538-.961 0-.517-.256-.763-.251-.246-.768-.381-.392-.104-.852-.172-.455-.0679-.967-.172-1.03-.219-1.54-.747-.496-.533-.496-1.38 0-.977.825-1.6.825-.627 2.1-.627.82 0 1.5.157.684.157 1.21.387v1.22h-.0731q-.444-.376-1.17-.622-.721-.251-1.48-.251-.831 0-1.34.345-.502.345-.502.888 0 .486.251.763.251.277.883.423.334.0731.951.178.616.104 1.04.214.867.23 1.31.695.439.465.439 1.3z"/>
 <path d="m64.4 127h-1.3l-2.34-2.55-.637.606v1.95h-.982v-8.13h.982v5.21l2.84-2.92h1.24l-2.71 2.7zm-6.79-2.82h-4.3q0 .538.162.94.162.397.444.653.272.251.643.376.376.125.825.125.596 0 1.2-.235.606-.24.862-.47h.0522v1.07q-.496.209-1.01.35-.517.141-1.09.141-1.45 0-2.27-.784-.815-.789-.815-2.24 0-1.43.778-2.27.784-.841 2.06-.841 1.18 0 1.82.69.643.69.643 1.96zm-.956-.752q-.0052-.773-.392-1.2-.381-.423-1.17-.423t-1.26.465q-.465.465-.528 1.15zm-5.42.752h-4.3q0 .538.162.94.162.397.444.653.272.251.643.376.376.125.825.125.596 0 1.2-.235.606-.24.862-.47h.0522v1.07q-.496.209-1.01.35-.517.141-1.09.141-1.45 0-2.27-.784-.815-.789-.815-2.24 0-1.43.778-2.27.784-.841 2.06-.841 1.18 0 1.82.69.643.69.643 1.96zm-.956-.752q-.0052-.773-.392-1.2-.381-.423-1.17-.423t-1.26.465q-.465.465-.528 1.15zm-5.51 1.35q0 .455-.214.899-.209.444-.59.752-.418.334-.977.522-.554.188-1.34.188-.841 0-1.52-.157-.669-.157-1.36-.465v-1.3h.0731q.59.491 1.36.758.773.266 1.45.266.961 0 1.49-.36.538-.36.538-.961 0-.517-.256-.763-.251-.246-.768-.381-.392-.104-.852-.172-.455-.0679-.967-.172-1.03-.219-1.54-.747-.496-.533-.496-1.38 0-.977.825-1.6.825-.627 2.1-.627.82 0 1.5.157.684.157 1.21.387v1.22h-.0732q-.444-.376-1.17-.622-.721-.251-1.48-.251-.831 0-1.34.345-.502.345-.502.888 0 .486.251.763t.883.423q.334.0731.951.178.617.104 1.04.214.867.23 1.31.695t.439 1.3z"/>
 <path d="m290 124q0 .799-.664 1.31-.658.512-1.8.512-.648 0-1.19-.152-.538-.157-.904-.34v-1.1h.0522q.465.35 1.03.559.569.204 1.09.204.648 0 1.01-.209.366-.209.366-.658 0-.345-.199-.522-.199-.178-.763-.303-.209-.047-.549-.11-.334-.0627-.611-.136-.768-.204-1.09-.596-.319-.397-.319-.972 0-.36.146-.679.152-.319.455-.569.293-.246.742-.387.455-.146 1.01-.146.522 0 1.06.131.538.125.893.308v1.05h-.0522q-.376-.277-.914-.465-.538-.193-1.06-.193-.538 0-.909.209-.371.204-.371.611 0 .36.225.543.219.183.711.298.272.0627.606.125.34.0627.564.115.684.157 1.06.538.371.387.371 1.02zm-5.57 0q0 .799-.664 1.31-.658.512-1.8.512-.648 0-1.19-.152-.538-.157-.904-.34v-1.1h.0522q.465.35 1.03.559.569.204 1.09.204.648 0 1.01-.209.366-.209.366-.658 0-.345-.199-.522-.199-.178-.763-.303-.209-.047-.549-.11-.334-.0627-.611-.136-.768-.204-1.09-.596-.319-.397-.319-.972 0-.36.146-.679.152-.319.455-.569.293-.246.742-.387.455-.146 1.01-.146.522 0 1.06.131.538.125.893.308v1.05h-.0522q-.376-.277-.914-.465-.538-.193-1.06-.193-.538 0-.909.209-.371.204-.371.611 0 .36.225.543.219.183.711.298.272.0627.606.125.34.0627.564.115.684.157 1.06.538.371.387.371 1.02zm-5.66-1.13h-4.3q0 .538.162.94.162.397.444.653.272.251.643.376.376.125.825.125.596 0 1.2-.235.606-.24.862-.47h.0522v1.07q-.496.209-1.01.35-.517.141-1.09.141-1.45 0-2.27-.784-.815-.789-.815-2.24 0-1.43.778-2.27.784-.841 2.06-.841 1.18 0 1.82.69.643.69.643 1.96zm-.956-.752q-.005-.773-.392-1.2-.381-.423-1.17-.423t-1.26.465q-.465.465-.528 1.15zm-4.85-1.2h-.0522q-.219-.0523-.428-.0731-.204-.0261-.486-.0261-.455 0-.878.204-.423.199-.815.517v4.14h-.982v-5.84h.982v.862q.585-.47 1.03-.664.449-.199.914-.199.256 0 .371.0157.115.0105.345.047zm-5.57 4.1q0 1.48-.674 2.18-.674.695-2.07.695-.465 0-.909-.0679-.439-.0627-.867-.183v-1h.0522q.24.094.763.23.522.141 1.04.141.502 0 .831-.12t.512-.334q.183-.204.261-.491.0784-.287.0784-.643v-.533q-.444.355-.852.533-.402.172-1.03.172-1.04 0-1.66-.752-.611-.758-.611-2.13 0-.752.209-1.3.214-.549.58-.946.34-.371.825-.575.486-.209.967-.209.507 0 .846.104.345.0993.726.308l.0627-.251h.92zm-.982-.94v-3.18q-.392-.178-.731-.251-.334-.0784-.669-.0784-.81 0-1.27.543-.465.543-.465 1.58 0 .982.345 1.49.345.507 1.14.507.428 0 .857-.162.434-.167.794-.444zm-5.27-1.31q0 1.43-.731 2.25t-1.96.825q-1.24 0-1.97-.825-.726-.825-.726-2.25t.726-2.25q.731-.831 1.97-.831 1.23 0 1.96.831.731.825.731 2.25zm-1.01 0q0-1.13-.444-1.68-.444-.554-1.23-.554-.799 0-1.24.554-.439.549-.439 1.68 0 1.1.444 1.67.444.564 1.24.564.784 0 1.23-.559.449-.564.449-1.67zm-4.89-1.85h-.0523q-.219-.0523-.428-.0731-.204-.0261-.486-.0261-.455 0-.878.204-.423.199-.815.517v4.14h-.982v-5.84h.982v.862q.585-.47 1.03-.664.449-.199.914-.199.256 0 .371.0157.115.0105.345.047zm-4.93-.664q0 .517-.183.961-.178.439-.502.763-.402.402-.951.606-.549.199-1.38.199h-1.03v2.9h-1.03v-7.78h2.11q.7 0 1.19.12.486.115.862.366.444.298.684.742.246.444.246 1.12zm-1.08.0261q0-.402-.141-.7t-.428-.486q-.251-.162-.575-.23-.319-.0731-.81-.0731h-1.02v3.11h.873q.627 0 1.02-.11.392-.115.637-.36.246-.251.345-.528.104-.277.104-.622z"/>
 <path d="m187 52.8h-.982v-3.32q0-.402-.047-.752-.047-.355-.172-.554-.131-.219-.376-.324-.246-.11-.637-.11-.402 0-.841.199t-.841.507v4.36h-.982v-5.84h.982v.648q.46-.381.951-.596.491-.214 1.01-.214.946 0 1.44.569.496.569.496 1.64zm-6.4-2.92q0 1.43-.731 2.25-.731.825-1.96.825-1.24 0-1.97-.825-.726-.825-.726-2.25 0-1.43.726-2.25.731-.831 1.97-.831 1.23 0 1.96.831.731.825.731 2.25zm-1.01 0q0-1.13-.444-1.68-.444-.554-1.23-.554-.799 0-1.24.554-.439.549-.439 1.68 0 1.1.444 1.67.444.564 1.24.564.784 0 1.23-.559.449-.564.449-1.67zm-5.15 2.86q-.277.0732-.606.12-.324.047-.58.047-.893 0-1.36-.481-.465-.481-.465-1.54v-3.1h-.664v-.825h.664v-1.68h.982v1.68h2.03v.825h-2.03v2.66q0 .46.0209.721.0209.256.146.481.115.209.313.308.204.094.616.094.24 0 .502-.0679.261-.0731.376-.12h.0522zm-4.22 0q-.277.0732-.606.12-.324.047-.58.047-.893 0-1.36-.481-.465-.481-.465-1.54v-3.1h-.664v-.825h.664v-1.68h.982v1.68h2.03v.825h-2.03v2.66q0 .46.0209.721.0209.256.146.481.115.209.313.308.204.094.616.094.24 0 .502-.0679.261-.0731.376-.12h.0522zm-4.96.0522h-.982v-.648q-.496.392-.951.601t-1 .209q-.92 0-1.43-.559-.512-.564-.512-1.65v-3.79h.982v3.32q0 .444.0418.763.0418.313.178.538.141.23.366.334t.653.104q.381 0 .831-.199.455-.199.846-.507v-4.36h.982zm-6.23-2.39q0 .58-.219 1.02-.219.444-.59.731-.439.345-.967.491-.522.146-1.33.146h-2.76v-7.78h2.3q.852 0 1.27.0627.423.0627.81.261.428.225.622.58.193.35.193.841 0 .554-.282.946-.282.387-.752.622v.0418q.789.162 1.24.695.455.528.455 1.34zm-1.74-3.51q0-.282-.094-.475t-.303-.313q-.246-.141-.596-.172-.35-.0366-.867-.0366h-1.23v2.25h1.34q.486 0 .773-.047.287-.0522.533-.209.246-.157.345-.402.104-.251.104-.59zm.664 3.55q0-.47-.141-.747t-.512-.47q-.251-.131-.611-.167-.355-.0418-.867-.0418h-1.62v2.89h1.37q.679 0 1.11-.0679.434-.0731.711-.261.293-.204.428-.465.136-.261.136-.674zm-6.36-.465h-4.3q0 .538.162.94.162.397.444.653.272.251.643.376.376.125.825.125.596 0 1.2-.235.606-.24.862-.47h.0522v1.07q-.496.209-1.01.35-.517.141-1.09.141-1.45 0-2.27-.784-.815-.789-.815-2.24 0-1.43.778-2.27.784-.841 2.06-.841 1.18 0 1.82.69.643.69.643 1.96zm-.956-.752q-.005-.773-.392-1.2-.381-.423-1.17-.423t-1.26.465q-.465.465-.528 1.15zm-5.12-2.27-2.36 5.84h-.987l-2.35-5.84h1.07l1.81 4.64 1.79-4.64zm-6.93-.977h-1.11v-1.02h1.11zm-.0627 6.81h-.982v-5.84h.982zm-1.95 0h-4.92v-7.78h1.03v6.86h3.89z"/>
 <path d="m192 121h-.0523q-.219-.0523-.428-.0731-.204-.0261-.486-.0261-.455 0-.878.204-.423.199-.815.517v4.14h-.982v-5.84h.982v.862q.585-.47 1.03-.664.449-.199.914-.199.256 0 .371.0157.115.0105.345.047zm-5.53 4.76h-.977v-.622q-.131.0888-.355.251-.219.157-.428.251-.246.12-.564.199-.319.0836-.747.0836-.789 0-1.34-.522-.549-.522-.549-1.33 0-.664.282-1.07.287-.413.815-.648.533-.235 1.28-.319t1.6-.125v-.152q0-.334-.12-.554-.115-.219-.334-.345-.209-.12-.502-.162-.293-.0418-.611-.0418-.387 0-.862.104-.475.0993-.982.293h-.0522v-.998q.287-.0784.831-.172.543-.094 1.07-.094.616 0 1.07.104.46.0993.794.345.329.24.502.622.172.381.172.946zm-.977-1.44v-1.62q-.449.0261-1.06.0784-.606.0523-.961.152-.423.12-.684.376-.261.251-.261.695 0 .502.303.758.303.251.925.251.517 0 .946-.199.428-.204.794-.486zm-4.95-.956q0 .58-.219 1.02-.219.444-.59.731-.439.345-.967.491-.522.146-1.33.146h-2.76v-7.78h2.3q.852 0 1.27.0627t.81.261q.428.225.622.58.193.35.193.841 0 .554-.282.946-.282.387-.752.622v.0418q.789.162 1.24.695.455.528.455 1.34zm-1.74-3.51q0-.282-.094-.475t-.303-.313q-.246-.141-.596-.172-.35-.0366-.867-.0366h-1.23v2.25h1.34q.486 0 .773-.047.287-.0523.533-.209.246-.157.345-.402.104-.251.104-.59zm.664 3.55q0-.47-.141-.747t-.512-.47q-.251-.131-.611-.167-.355-.0418-.867-.0418h-1.62v2.89h1.37q.679 0 1.11-.0679.434-.0731.711-.261.293-.204.428-.465t.136-.674zm-6.27.669q0 .799-.664 1.31-.658.512-1.8.512-.648 0-1.19-.152-.538-.157-.904-.34v-1.1h.0523q.465.35 1.03.559.569.204 1.09.204.648 0 1.01-.209.366-.209.366-.658 0-.345-.199-.522-.199-.178-.763-.303-.209-.047-.549-.11-.334-.0627-.611-.136-.768-.204-1.09-.596-.319-.397-.319-.972 0-.36.146-.679.152-.319.455-.569.293-.246.742-.387.455-.146 1.01-.146.522 0 1.06.131.538.125.893.308v1.05h-.0522q-.376-.277-.914-.465-.538-.193-1.06-.193-.538 0-.909.209-.371.204-.371.611 0 .36.225.543.219.183.711.298.272.0627.606.125.34.0627.564.115.684.157 1.06.538.371.387.371 1.02zm-5.57 0q0 .799-.664 1.31-.658.512-1.8.512-.648 0-1.19-.152-.538-.157-.904-.34v-1.1h.0523q.465.35 1.03.559.569.204 1.09.204.648 0 1.01-.209.366-.209.366-.658 0-.345-.199-.522-.199-.178-.763-.303-.209-.047-.549-.11-.334-.0627-.611-.136-.768-.204-1.09-.596-.319-.397-.319-.972 0-.36.146-.679.152-.319.455-.569.293-.246.742-.387.455-.146 1.01-.146.522 0 1.06.131.538.125.893.308v1.05h-.0522q-.376-.277-.914-.465-.538-.193-1.06-.193-.538 0-.909.209-.371.204-.371.611 0 .36.225.543.219.183.711.298.272.0627.606.125.34.0627.564.115.684.157 1.06.538.371.387.371 1.02zm-5.66-1.13h-4.3q0 .538.162.94.162.397.444.653.272.251.643.376.376.125.825.125.596 0 1.2-.235.606-.24.862-.47h.0522v1.07q-.496.209-1.01.35-.517.141-1.09.141-1.45 0-2.27-.784-.815-.789-.815-2.24 0-1.43.778-2.27.784-.841 2.06-.841 1.18 0 1.82.69.643.69.643 1.96zm-.956-.752q-.005-.773-.392-1.2-.381-.423-1.17-.423t-1.26.465q-.465.465-.528 1.15zm-4.85-1.2h-.0523q-.219-.0523-.428-.0731-.204-.0261-.486-.0261-.455 0-.878.204-.423.199-.815.517v4.14h-.982v-5.84h.982v.862q.585-.47 1.03-.664.449-.199.914-.199.256 0 .371.0157.115.0105.345.047zm-5.57 4.1q0 1.48-.674 2.18-.674.695-2.07.695-.465 0-.909-.0679-.439-.0627-.867-.183v-1h.0523q.24.094.763.23.522.141 1.04.141.502 0 .831-.12t.512-.334q.183-.204.261-.491.0784-.287.0784-.643v-.533q-.444.355-.852.533-.402.172-1.03.172-1.04 0-1.66-.752-.611-.758-.611-2.13 0-.752.209-1.3.214-.549.58-.946.34-.371.825-.575.486-.209.967-.209.507 0 .846.104.345.0993.726.308l.0627-.251h.92zm-.982-.94v-3.18q-.392-.178-.731-.251-.334-.0784-.669-.0784-.81 0-1.27.543t-.465 1.58q0 .982.345 1.49.345.507 1.14.507.428 0 .857-.162.434-.167.794-.444zm-5.27-1.31q0 1.43-.731 2.25-.731.825-1.96.825-1.24 0-1.97-.825-.726-.826-.726-2.25t.726-2.25q.731-.831 1.97-.831 1.23 0 1.96.831.731.825.731 2.25zm-1.01 0q0-1.13-.444-1.68-.444-.554-1.23-.554-.799 0-1.24.554-.439.549-.439 1.68 0 1.1.444 1.67.444.564 1.24.564.784 0 1.23-.559.449-.564.449-1.67zm-4.89-1.85h-.0522q-.219-.0523-.428-.0731-.204-.0261-.486-.0261-.455 0-.878.204-.423.199-.815.517v4.14h-.982v-5.84h.982v.862q.585-.47 1.03-.664.449-.199.914-.199.256 0 .371.0157.115.0105.345.047zm-4.93-.664q0 .517-.183.961-.178.439-.502.763-.402.402-.951.606-.549.199-1.38.199h-1.03v2.9h-1.03v-7.78h2.11q.7 0 1.19.12.486.115.862.366.444.298.684.742.246.444.246 1.12zm-1.08.0261q0-.402-.141-.7t-.428-.486q-.251-.162-.575-.23-.319-.0731-.81-.0731h-1.02v3.11h.873q.627 0 1.02-.11.392-.115.637-.36.246-.251.345-.528.104-.277.104-.622z"/>
 <path d="m188 201h-.982v-8.13h.982zm-2.48-2.82h-4.3q0 .538.162.94.162.397.444.653.272.251.643.376.376.125.825.125.596 0 1.2-.235.606-.24.862-.47h.0522v1.07q-.496.209-1.01.35-.517.141-1.09.141-1.45 0-2.27-.784-.815-.789-.815-2.24 0-1.43.778-2.27.784-.841 2.06-.841 1.18 0 1.82.69.643.69.643 1.96zm-.956-.752q-.005-.773-.392-1.2-.381-.423-1.17-.423t-1.26.465q-.465.465-.528 1.15zm-5.86 3.57h-.982v-.611q-.423.366-.883.569t-.998.204q-1.04 0-1.66-.805-.611-.805-.611-2.23 0-.742.209-1.32.214-.58.575-.987.355-.397.825-.606.475-.209.982-.209.46 0 .815.0993.355.094.747.298v-2.53h.982zm-.982-1.44v-3.35q-.397-.178-.711-.246-.313-.0679-.684-.0679-.825 0-1.29.575-.46.575-.46 1.63 0 1.04.355 1.58.355.538 1.14.538.418 0 .846-.183.428-.188.799-.481zm-5.27-1.48q0 1.43-.731 2.25-.731.825-1.96.825-1.24 0-1.97-.825-.726-.825-.726-2.25t.726-2.25q.731-.831 1.97-.831 1.23 0 1.96.831.731.825.731 2.25zm-1.01 0q0-1.13-.444-1.68-.444-.554-1.23-.554-.799 0-1.24.554-.439.549-.439 1.68 0 1.1.444 1.67.444.564 1.24.564.784 0 1.23-.559.449-.564.449-1.67zm-5.97 2.92h-1.03v-6.7l-2.16 4.56h-.616l-2.15-4.56v6.7h-.967v-7.78h1.41l2.07 4.33 2.01-4.33h1.44zm-8.42-5.84-1.52 5.84h-.909l-1.5-4.5-1.49 4.5h-.904l-1.54-5.84h1.02l1.07 4.52 1.46-4.52h.81l1.49 4.52 1.01-4.52zm-8.83 3.02h-4.3q0 .538.162.94.162.397.444.653.272.251.643.376.376.125.825.125.596 0 1.2-.235.606-.24.862-.47h.0522v1.07q-.496.209-1.01.35t-1.09.141q-1.45 0-2.27-.784-.815-.789-.815-2.24 0-1.43.778-2.27.784-.841 2.06-.841 1.18 0 1.82.69.643.69.643 1.96zm-.956-.752q-.005-.773-.392-1.2-.381-.423-1.17-.423t-1.26.465q-.465.465-.528 1.15zm-5.81-3.24h-1.11v-1.02h1.11zm-.0627 6.81h-.982v-5.84h.982zm-2.1-7.78-2.83 7.78h-1.38l-2.83-7.78h1.11l2.44 6.84 2.44-6.84z"/>
 <path d="m116 49c-132 0-132 139 0 139" fill="none" stroke="#1fa4d3" stroke-width="2"/>
 <path d="m204 49c132 0 132 139 0 139" fill="none" stroke="#86d31f" stroke-width="2"/>
 <path d="m135.09 274.23h-1.0313v-6.6825l-2.1563 4.547h-0.6146l-2.1407-4.547v6.6825h-0.96357v-7.7554h1.4063l2.0678 4.3178 2.0001-4.3178h1.4323zm6.8752-2.8074h-4.2866q0 0.53647 0.16146 0.93753 0.16146 0.39584 0.44272 0.65106 0.27084 0.25001 0.64065 0.37501 0.37501 0.125 0.82294 0.125 0.59377 0 1.1927-0.23438 0.60419-0.23959 0.85941-0.46876h0.0521v1.0677q-0.49481 0.20834-1.0104 0.34897t-1.0834 0.14063q-1.448 0-2.2605-0.78128-0.81253-0.78648-0.81253-2.2292 0-1.4271 0.77607-2.2657 0.78127-0.83857 2.0522-0.83857 1.1771 0 1.8126 0.68753 0.64065 0.68752 0.64065 1.9532zm-0.95316-0.75003q-5e-3 -0.77085-0.39063-1.1927-0.38022-0.42189-1.1615-0.42189-0.78648 0-1.2552 0.46356-0.46355 0.46355-0.52605 1.1511zm7.1565 3.5574h-0.9792v-0.6094q-0.42189 0.3646-0.88024 0.56773-0.45834 0.20313-0.99482 0.20313-1.0417 0-1.6563-0.80211-0.6094-0.80211-0.6094-2.224 0-0.7396 0.20834-1.3178 0.21355-0.57814 0.57294-0.9844 0.35418-0.39585 0.82294-0.60419 0.47397-0.20834 0.9792-0.20834 0.45835 0 0.81252 0.099 0.35418 0.0937 0.74482 0.29688v-2.5209h0.9792zm-0.9792-1.4323v-3.3386q-0.39585-0.17708-0.70836-0.24479-0.31251-0.0677-0.68231-0.0677-0.82294 0-1.2813 0.57294-0.45835 0.57293-0.45835 1.625 0 1.0365 0.35418 1.5782 0.35418 0.53648 1.1354 0.53648 0.41668 0 0.84378-0.1823 0.4271-0.1875 0.7969-0.47918zm3.9585-5.3595h-1.1042v-1.0157h1.1042zm-0.0625 6.7919h-0.97919v-5.8179h0.97919zm6.4585 0h-0.97399v-0.61981q-0.13021 0.0885-0.35418 0.25-0.21875 0.15626-0.42709 0.25001-0.2448 0.1198-0.56252 0.19792-0.31772 0.0833-0.74482 0.0833-0.78648 0-1.3334-0.52085t-0.54689-1.3282q0-0.66147 0.28126-1.0677 0.28646-0.41147 0.81252-0.64585 0.53127-0.23438 1.2761-0.31772 0.74482-0.0833 1.599-0.125v-0.15105q0-0.33334-0.11979-0.5521-0.11459-0.21876-0.33335-0.34376-0.20834-0.1198-0.50001-0.16146-0.29168-0.0417-0.6094-0.0417-0.38543 0-0.8594 0.10417-0.47397 0.099-0.9792 0.29167h-0.0521v-0.99482q0.28647-0.0781 0.82815-0.17188 0.54168-0.0937 1.0677-0.0937 0.6146 0 1.0677 0.10417 0.45835 0.099 0.79169 0.34376 0.32814 0.23959 0.50002 0.61981t0.17188 0.94274zm-0.97399-1.4323v-1.6198q-0.44793 0.026-1.0573 0.0781-0.60419 0.0521-0.95837 0.15104-0.42189 0.1198-0.68231 0.37501-0.26042 0.25001-0.26042 0.69273 0 0.50002 0.30209 0.75524 0.30209 0.25 0.9219 0.25 0.51564 0 0.94274-0.19792 0.4271-0.20313 0.79169-0.48439zm8.0107-3.9793q0 0.51564-0.1823 0.95836-0.17709 0.43752-0.50001 0.76044-0.40106 0.40106-0.94795 0.60419-0.54689 0.19792-1.3802 0.19792h-1.0313v2.8907h-1.0313v-7.7554h2.1042q0.69793 0 1.1823 0.11979 0.48439 0.11459 0.85941 0.3646 0.44272 0.29688 0.68231 0.7396 0.2448 0.44273 0.2448 1.1198zm-1.073 0.026q0-0.40105-0.14063-0.69794-0.14063-0.29688-0.4271-0.48439-0.25001-0.16146-0.57293-0.22917-0.31772-0.0729-0.80732-0.0729h-1.0209v3.0991h0.86981q0.62502 0 1.0157-0.10938 0.39064-0.11459 0.63544-0.35939 0.2448-0.25001 0.34376-0.52606 0.10417-0.27605 0.10417-0.61981zm3.3438 5.3856h-0.97919v-8.1044h0.97919zm6.4585 0h-0.97399v-0.61981q-0.13021 0.0885-0.35418 0.25-0.21876 0.15626-0.4271 0.25001-0.2448 0.1198-0.56251 0.19792-0.31772 0.0833-0.74482 0.0833-0.78648 0-1.3334-0.52085-0.5469-0.52085-0.5469-1.3282 0-0.66147 0.28126-1.0677 0.28647-0.41147 0.81253-0.64585 0.53127-0.23438 1.2761-0.31772 0.74481-0.0833 1.599-0.125v-0.15105q0-0.33334-0.1198-0.5521-0.11458-0.21876-0.33334-0.34376-0.20834-0.1198-0.50002-0.16146-0.29167-0.0417-0.60939-0.0417-0.38543 0-0.8594 0.10417-0.47398 0.099-0.9792 0.29167h-0.0521v-0.99482q0.28646-0.0781 0.82815-0.17188 0.54168-0.0937 1.0677-0.0937 0.6146 0 1.0677 0.10417 0.45835 0.099 0.79169 0.34376 0.32814 0.23959 0.50002 0.61981t0.17188 0.94274zm-0.97399-1.4323v-1.6198q-0.44793 0.026-1.0573 0.0781-0.60418 0.0521-0.95836 0.15104-0.42189 0.1198-0.68231 0.37501-0.26043 0.25001-0.26043 0.69273 0 0.50002 0.3021 0.75524 0.30209 0.25 0.9219 0.25 0.51564 0 0.94274-0.19792 0.42709-0.20313 0.79169-0.48439zm7.8075-4.3856-3.3959 7.9638h-1.0469l1.0834-2.4272-2.3178-5.5366h1.0625l1.7865 4.3126 1.8021-4.3126zm6.0575 3.0105h-4.2866q0 0.53647 0.16146 0.93753 0.16147 0.39584 0.44273 0.65106 0.27084 0.25001 0.64064 0.37501 0.37501 0.125 0.82294 0.125 0.59377 0 1.1928-0.23438 0.60419-0.23959 0.8594-0.46876h0.0521v1.0677q-0.49481 0.20834-1.0104 0.34897t-1.0834 0.14063q-1.448 0-2.2605-0.78128-0.81252-0.78648-0.81252-2.2292 0-1.4271 0.77606-2.2657 0.78128-0.83857 2.0522-0.83857 1.1771 0 1.8126 0.68753 0.64064 0.68752 0.64064 1.9532zm-0.95315-0.75003q-5e-3 -0.77085-0.39064-1.1927-0.38022-0.42189-1.1615-0.42189-0.78649 0-1.2552 0.46356-0.46356 0.46355-0.52606 1.1511zm6.0679-1.1927h-0.0521q-0.21875-0.0521-0.42709-0.0729-0.20314-0.026-0.48439-0.026-0.45314 0-0.87503 0.20313-0.42189 0.19792-0.81253 0.51564v4.1303h-0.97919v-5.8179h0.97919v0.8594q0.58335-0.46877 1.0261-0.66148 0.44793-0.19792 0.91148-0.19792 0.25522 0 0.36981 0.0156 0.11458 0.0104 0.34376 0.0469z" stroke-width="2" aria-label="MediaPlayer"/>
 <g fill="#86d31f">
  <path d="m116.25 204.75c-29 0-43.9 16.6-43.9 33.3 2e-6 16.8 14.9 33.3 43.9 33.3v-2c-28.2 0-41.9-15.8-41.9-31.3-1e-6 -15.6 13.7-31.3 41.9-31.3z"/>
  <path d="m107.25 198.75 10 7.01-10 7.01z"/>
 </g>
 <g transform="matrix(-1 0 0 -1 320 476)" fill="#1fa4d3">
  <path d="m116 205c-29 0-43.9 16.6-43.9 33.3 2e-6 16.8 14.9 33.3 43.9 33.3v-2c-28.2 0-41.9-15.8-41.9-31.3-1e-6 -15.6 13.7-31.3 41.9-31.3z"/>
  <path d="m107 199 10 7.01-10 7.01z"/>
 </g>
 <g transform="matrix(1 0 0 -1 .25 394)" fill="#1fa4d3">
  <path d="m116 205c-29 0-43.9 16.6-43.9 33.3 2e-6 16.8 14.9 33.3 43.9 33.3v-2c-28.2 0-41.9-15.8-41.9-31.3-1e-6 -15.6 13.7-31.3 41.9-31.3z"/>
  <path d="m107 199 10 7.01-10 7.01z"/>
 </g>
 <path d="m213 41.9-10 7.01 10 7.01z" fill="#86d31f"/>
 <g transform="matrix(-1 0 0 1 320 -83)" fill="#86d31f">
  <path d="m116 205c-29 0-43.9 16.6-43.9 33.3 2e-6 16.8 14.9 33.3 43.9 33.3v-2c-28.2 0-41.9-15.8-41.9-31.3-1e-6 -15.6 13.7-31.3 41.9-31.3z"/>
  <path d="m107 199 10 7.01-10 7.01z"/>
 </g>
</svg>
