<svg class="icon" width="3215" height="341.2" version="1.1" viewBox="0 0 3215 341.2" xml:space="preserve" xmlns="http://www.w3.org/2000/svg"><rect width="3215" height="341.2" rx="98.29" ry="98.29" fill="#aeb1b6" vector-effect="non-scaling-stroke" style="-inkscape-stroke:hairline"/><g transform="translate(-16.3 -38.07)"><g transform="translate(-5.208)"><g transform="matrix(.9872 0 0 .9872 1255 69.77)"><g stroke-width=".268"><path d="m312.7 206.3c-3e-3 -3e-3 -6e-3 -6e-3 -6e-3 -8e-3 -1.606-1.812-2.371-5.173-3.193-8.752-0.8205-3.577-1.738-7.435-4.675-9.935-6e-3 -6e-3 -0.0135-0.0106-0.0185-0.0161-0.5821-0.508-1.18-0.9364-1.781-1.294-0.603-0.3572-1.214-0.6482-1.825-0.8784 4.083-12.11 2.482-24.16-1.64-35.06-5.056-13.37-13.89-25.02-20.63-32.99-7.549-9.522-14.93-18.56-14.78-31.91 0.2246-20.38 2.241-58.16-33.62-58.21-1.458-0.0026-2.979 0.05821-4.564 0.1852-40.07 3.225-29.44 45.56-30.04 59.73-0.7329 10.37-2.834 18.54-9.964 28.67-8.374 9.959-20.17 26.08-25.75 42.86-2.635 7.919-3.889 15.99-2.733 23.63-0.3625 0.3254-0.7064 0.667-1.037 1.016-2.458 2.627-4.276 5.807-6.3 7.948-1.892 1.889-4.585 2.606-7.549 3.667-2.963 1.064-6.215 2.63-8.189 6.419 0 0 0 3e-3 -3e-3 3e-3 -3e-3 5e-3 -5e-3 0.0132-0.0106 0.0183-0.9287 1.733-1.23 3.604-1.23 5.501 0 1.754 0.2593 3.532 0.5212 5.244 0.545 3.561 1.098 6.929 0.3651 9.21-2.344 6.411-2.646 10.84-0.9948 14.06 1.656 3.223 5.056 4.643 8.901 5.448 7.689 1.603 18.1 1.206 26.3 5.556l0.7064-1.331-0.6985 1.334c8.784 4.593 17.69 6.223 24.79 4.601 5.154-1.174 9.334-4.244 11.48-8.964 5.556-0.0265 11.65-2.381 21.42-2.918 6.628-0.5347 14.91 2.355 24.43 1.825 0.2487 1.032 0.6088 2.027 1.101 2.971 6e-3 8e-3 0.0106 0.0182 0.0161 0.0265 3.691 7.382 10.55 10.76 17.86 10.18 7.318-0.577 15.1-4.892 21.39-12.38l-1.154-0.9684 1.162 0.9578c5.995-7.271 15.95-10.28 22.55-14.26 3.299-1.99 5.974-4.482 6.183-8.102 0.2058-3.617-1.919-7.67-6.803-13.09z" fill="#202020"/><g fill="#f8bf11"><path d="m316.5 219.2c-0.127 2.233-1.744 3.892-4.731 5.691-5.969 3.601-16.55 6.734-23.3 14.92-5.869 6.982-13.02 10.82-19.32 11.31-6.299 0.4974-11.73-2.117-14.94-8.549l-6e-3 -0.0132-8e-3 -0.0161c-1.99-3.784-1.162-9.75 0.513-16.05 1.675-6.294 4.083-12.76 4.405-18.01v-0.0161c0.3384-6.731 0.717-12.61 1.847-17.15 1.132-4.538 2.913-7.607 6.067-9.334 0.1482-0.0794 0.2934-0.1561 0.4389-0.2275 0.3575 5.829 3.244 11.78 8.345 13.06 5.583 1.471 13.63-3.318 17.03-7.226 0.6797-0.0267 1.341-0.0608 1.984-0.0767 2.982-0.0717 5.48 0.1005 8.035 2.334l8e-3 8e-3 8e-3 6e-3c1.963 1.664 2.897 4.807 3.707 8.326 0.8099 3.522 1.455 7.355 3.884 10.09l3e-3 3e-3 3e-3 6e-3c4.668 5.178 6.168 8.676 6.038 10.91z"/><path d="m203.1 235.7-3e-3 0.0159v0.0185c-0.5398 7.075-4.53 10.93-10.66 12.33-6.122 1.4-14.43 6e-3 -22.72-4.331-3e-3 0-5e-3 -3e-3 -8e-3 -3e-3 -9.176-4.86-20.09-4.376-27.09-5.839-3.5-0.7302-5.786-1.831-6.834-3.874-1.048-2.045-1.072-5.609 1.156-11.69l0.0106-0.0267 8e-3 -0.0265c1.103-3.4 0.2858-7.12-0.2487-10.61s-0.7964-6.667 0.3969-8.879l0.0106-0.0212c1.527-2.942 3.765-3.995 6.543-4.99 2.781-0.9975 6.075-1.78 8.676-4.389l0.0159-0.0132 0.0132-0.0132c2.405-2.537 4.212-5.72 6.326-7.977 1.783-1.905 3.569-3.167 6.26-3.186 0.0317 3e-3 0.0608 3e-3 0.0926 0 0.471 3e-3 0.971 0.0423 1.5 0.1246 3.572 0.5398 6.686 3.037 9.686 7.106l8.662 15.79 3e-3 8e-3 5e-3 5e-3c2.305 4.813 7.173 10.11 11.3 15.51 4.125 5.398 7.316 10.82 6.9 14.97z"/><path d="m246.3 88.55c-0.6959-1.363-2.117-2.659-4.535-3.651l-5e-3 -0.0026-8e-3 -0.0026c-5.03-2.154-7.213-2.307-10.02-4.133-4.569-2.937-8.345-3.966-11.48-3.953-1.643 0.0053-3.112 0.2963-4.426 0.7514-3.823 1.315-6.361 4.059-7.951 5.564l-3e-3 0.0026c0 0.0026-3e-3 0.0026-3e-3 0.0053-0.3122 0.2963-0.7144 0.5662-1.688 1.281-0.9816 0.717-2.453 1.797-4.569 3.384-1.881 1.41-2.492 3.246-1.842 5.397 0.6482 2.151 2.723 4.633 6.517 6.779l5e-3 0.0053 8e-3 0.0026c2.355 1.384 3.963 3.249 5.81 4.733 0.9234 0.7408 1.894 1.402 3.064 1.902s2.535 0.8387 4.244 0.9393c4.011 0.2328 6.964-0.971 9.57-2.463 2.611-1.49 4.823-3.313 7.361-4.135l5e-3 -3e-3 6e-3 -3e-3c5.201-1.625 8.911-4.897 10.07-8.006 0.5821-1.556 0.5636-3.032-0.1296-4.395z"/></g><path d="m233.1 96.23c-4.138 2.157-8.972 4.773-14.12 4.773-5.141 0-9.202-2.376-12.12-4.691-1.46-1.156-2.646-2.307-3.54-3.143-1.552-1.225-1.366-2.943-0.7283-2.892 1.069 0.1334 1.23 1.54 1.903 2.17 0.9102 0.852 2.051 1.955 3.432 3.051 2.762 2.188 6.445 4.318 11.06 4.318 4.604 0 9.978-2.703 13.26-4.543 1.858-1.043 4.223-2.911 6.153-4.328 1.477-1.084 1.423-2.389 2.642-2.247 1.219 0.1421 0.3173 1.445-1.39 2.935s-4.378 3.467-6.548 4.598z" fill="#202020"/><path d="m296.4 184.5c-0.5742-0.0212-1.14-0.0183-1.691-5e-3 -0.0503 3e-3 -0.1005 3e-3 -0.1535 3e-3 1.421-4.487-1.722-7.797-10.1-11.59-8.686-3.82-15.61-3.442-16.78 4.31-0.0741 0.4048-0.1349 0.8202-0.1799 1.238-0.6509 0.2275-1.302 0.5133-1.958 0.8705-4.077 2.233-6.305 6.281-7.543 11.25-1.236 4.964-1.593 10.96-1.931 17.71v5e-3c-0.209 3.39-1.606 7.977-3.019 12.84-14.23 10.15-33.98 14.55-50.75 3.103-1.135-1.797-2.439-3.577-3.781-5.334-0.8572-1.122-1.738-2.236-2.611-3.336 1.72 3e-3 3.183-0.2807 4.366-0.8149 1.471-0.6694 2.503-1.738 3.016-3.114 1.021-2.749-5e-3 -6.628-3.278-11.06-3.273-4.429-8.816-9.427-16.96-14.42v-3e-3c-5.985-3.723-9.329-8.284-10.9-13.24-1.569-4.956-1.349-10.31-0.1402-15.6 2.318-10.15 8.271-20.03 12.07-26.22 1.021-0.7514 0.3651 1.397-3.847 9.218-3.773 7.149-10.83 23.65-1.169 36.53 0.2593-9.165 2.447-18.51 6.122-27.26 5.353-12.13 16.55-33.17 17.44-49.94 0.4604 0.3334 2.035 1.397 2.736 1.797 3e-3 3e-3 3e-3 3e-3 5e-3 3e-3 2.053 1.209 3.596 2.977 5.593 4.583 2.003 1.609 4.503 2.998 8.281 3.217 0.3625 0.0212 0.717 0.0317 1.064 0.0317 3.895 0 6.932-1.27 9.462-2.717 2.749-1.572 4.945-3.313 7.028-3.99 3e-3 -3e-3 5e-3 -3e-3 8e-3 -3e-3 4.4-1.376 7.895-3.81 9.885-6.646 3.418 13.47 11.37 32.93 16.48 42.43 2.717 5.038 8.12 15.74 10.45 28.64 1.479-0.0452 3.109 0.1693 4.852 0.6162 6.104-15.82-5.175-32.87-10.33-37.61-2.082-2.021-2.183-2.926-1.148-2.884 5.593 4.95 12.94 14.9 15.61 26.14 1.219 5.122 1.479 10.51 0.1717 15.82 0.6376 0.2646 1.289 0.553 1.947 0.8655 9.798 4.77 13.42 8.919 11.68 14.58z" fill="#fff"/></g><path d="m226.6 141.8a45.11 66.76 0 0 0-41.87 42.33l0.9922 0.6175v0.0558c7.639 4.85 13.08 9.717 16.44 14.27v5.3e-4h5.2e-4c3.554 4.813 5.136 9.5 3.63 13.55l-1e-3 4e-3c-0.7624 2.044-2.387 3.682-4.399 4.598l-4e-3 2e-3 -3e-3 2e-3c-0.2115 0.0955-0.4375 0.1662-0.6568 0.248 1.204 1.579 2.383 3.206 3.47 4.878 15.34 10.21 33.19 6.433 46.59-2.805 1.308-4.508 2.5-8.711 2.663-11.34 0.3391-6.752 0.6798-12.87 2.006-18.2v-5.3e-4c1.337-5.364 3.937-10.25 8.84-12.93l6e-3 -4e-3c0.2755-0.15 0.5522-0.2376 0.8284-0.3679 0.0885-0.5305 0.2112-1.041 0.3602-1.534a45.11 66.76 0 0 0-38.89-33.38zm38.5 35.02-0.0139 0.0816c1e-3 -9e-3 5e-3 -0.0176 6e-3 -0.0269 3e-3 -0.0179 4e-3 -0.0369 8e-3 -0.0548z" color-rendering="auto" fill="#e6e6e6" image-rendering="auto" shape-rendering="auto" stroke-width="1.013"/><path d="m246.7 73.03c0.0212 2.67-0.4392 4.942-1.453 7.263-0.5768 1.323-1.241 2.434-2.037 3.397-0.2701-0.1296-0.5503-0.254-0.8416-0.3731-1.008-0.4313-1.9-0.7858-2.698-1.087-0.7993-0.3016-1.423-0.5077-2.066-0.73 0.4659-0.5636 1.384-1.228 1.725-2.061 0.5186-1.257 0.7726-2.484 0.8202-3.948 0-0.05821 0.0185-0.1085 0.0185-0.1773 0.0291-1.402-0.1561-2.601-0.5662-3.829-0.4286-1.289-0.9739-2.215-1.762-2.984-0.7911-0.7699-1.58-1.119-2.527-1.151-0.045-0.0026-0.0873-0.0026-0.1323-0.0026-0.889 0.0026-1.662 0.3096-2.461 0.9763-0.8387 0.7011-1.46 1.598-1.979 2.847-0.5159 1.249-0.7699 2.487-0.8205 3.958-8e-3 0.05821-8e-3 0.1085-8e-3 0.1667-0.0185 0.8096 0.0344 1.55 0.1588 2.27-1.82-0.9075-4.149-1.569-5.758-1.953-0.0926-0.6959-0.1455-1.413-0.1614-2.164v-0.2037c-0.0291-2.662 0.4074-4.945 1.431-7.263 1.024-2.32 2.291-3.987 4.074-5.345 1.786-1.355 3.54-1.976 5.617-1.998h0.0979c2.032 0 3.77 0.598 5.556 1.892 1.812 1.318 3.119 2.963 4.172 5.265 1.032 2.244 1.529 4.437 1.58 7.038-2.7e-4 0.06879-2.7e-4 0.127 0.0182 0.1958z" fill="#fff" stroke-width=".268"/><path d="m216 75.69c-0.2672 0.07673-0.5265 0.1588-0.7832 0.2461-1.455 0.5027-2.611 1.058-3.727 1.796 0.1085-0.7726 0.1244-1.556 0.0397-2.432-8e-3 -0.04762-8e-3 -0.08731-8e-3 -0.1349-0.1164-1.162-0.3625-2.135-0.7726-3.119-0.4366-1.024-0.926-1.746-1.569-2.302-0.5821-0.5027-1.132-0.7355-1.741-0.7302-0.0608 0-0.1244 0.0026-0.1878 0.0079-0.6826 0.05821-1.249 0.3916-1.786 1.045-0.5345 0.6509-0.8864 1.46-1.14 2.535-0.254 1.072-0.3202 2.125-0.2143 3.334 0 0.04762 0.0106 0.08731 0.0106 0.1349 0.1164 1.172 0.3519 2.146 0.7699 3.13 0.4286 1.013 0.926 1.736 1.569 2.291 0.1085 0.0926 0.2143 0.1773 0.3201 0.2514-0.6668 0.5159-1.115 0.8819-1.665 1.284-0.3519 0.2566-0.7699 0.5636-1.257 0.9234-1.061-0.9948-1.889-2.244-2.614-3.892-0.8572-1.947-1.315-3.897-1.453-6.199v-0.01852c-0.127-2.302 0.0979-4.281 0.7302-6.329 0.635-2.048 1.482-3.53 2.712-4.747 1.228-1.22 2.466-1.834 3.958-1.91 0.1164-0.0053 0.2302-0.0079 0.344-0.0079 1.352 0.0026 2.559 0.4524 3.807 1.45 1.355 1.082 2.379 2.466 3.236 4.416 0.8599 1.95 1.318 3.9 1.445 6.202v0.01852c0.0609 0.9657 0.0529 1.876-0.0238 2.757z" fill="#fff" stroke-width=".268"/><path d="m222.8 81.2c0.1711 0.5493 1.056 0.4583 1.568 0.7218 0.4488 0.2312 0.8098 0.7379 1.315 0.7525 0.4816 0.01392 1.231-0.1668 1.294-0.6446 0.0828-0.6312-0.839-1.032-1.432-1.264-0.7632-0.2976-1.741-0.4486-2.457-0.05046-0.1641 0.09122-0.3431 0.3051-0.2873 0.4844z" fill="#202020" stroke-width="1.013"/><path d="m217.6 81.2c-0.1711 0.5493-1.056 0.4583-1.568 0.7218-0.4488 0.2312-0.8099 0.7379-1.315 0.7525-0.4817 0.01392-1.231-0.1668-1.294-0.6446-0.0828-0.6312 0.839-1.032 1.432-1.264 0.7632-0.2976 1.741-0.4486 2.457-0.05046 0.1641 0.09122 0.3431 0.3051 0.2873 0.4844z" fill="#202020" stroke-width="1.013"/></g><text x="1579.3484" y="248.23514" fill="#002233" font-size="135.8px" stroke="#daebf1" stroke-linecap="round" vector-effect="non-scaling-stroke" style="-inkscape-stroke:hairline" xml:space="preserve"><tspan x="1579.3484" y="248.23514" fill="#002233" font-size="135.8px" stroke="none">Linux</tspan></text></g><text x="476.93152" y="257.89667" fill="#002233" font-size="135.8px" stroke="#daebf1" stroke-linecap="round" vector-effect="non-scaling-stroke" style="-inkscape-stroke:hairline" xml:space="preserve"><tspan x="476.93152" y="257.89667" fill="#002233" font-size="135.8px" stroke="none">Windows</tspan></text><path d="m254.7 110.9h90.91v90.91h-90.91zm100.9 0h90.91v90.91h-90.91zm-100.9 100.9h90.91v90.91h-90.91zm100.9 0h90.91v90.91h-90.91" fill="#0078d4"/><text x="2516.6152" y="251.95465" fill="#002233" font-size="135.8px" stroke="#daebf1" stroke-linecap="round" vector-effect="non-scaling-stroke" style="-inkscape-stroke:hairline" xml:space="preserve"><tspan x="2516.6152" y="251.95465" fill="#002233" font-size="135.8px" stroke="none">macOS</tspan></text><path d="m2387 222.6c0 16.14-8.407 26.3-21.83 26.3-13.43 0-21.83-10.21-21.83-26.3 0-16.2 8.407-26.35 21.83-26.35 13.43 0 21.83 10.15 21.83 26.35zm18.73-56.93-5.868 0.395c-3.329 0.2257-4.796 1.411-4.796 3.555 0 2.257 1.862 3.498 4.457 3.498 3.555 0 6.207-2.313 6.207-5.417zm83.96 36.39c0 53.55-42.38 95.92-95.92 95.92-53.55 0-95.92-42.38-95.92-95.92 0-53.55 42.38-95.92 95.92-95.92 53.55 0 95.92 42.38 95.92 95.92zm-73.69-37.58c0 7.787 4.288 12.53 11.28 12.53 5.924 0 9.652-3.329 10.27-8.068h-4.627c-0.6207 2.596-2.652 4.006-5.642 4.006-3.95 0-6.376-3.216-6.376-8.464 0-5.191 2.426-8.294 6.376-8.294 3.16 0 5.135 1.806 5.642 4.119h4.627c-0.6207-4.627-4.232-8.125-10.27-8.125-6.996-0.0564-11.28 4.683-11.28 12.3zm-64.5-11.85v23.92h4.74v-14.67c0-3.103 2.2-5.586 5.078-5.586 2.822 0 4.627 1.693 4.627 4.401v15.86h4.627v-15.12c0-2.878 1.974-5.135 5.078-5.135s4.627 1.58 4.627 4.909v15.35h4.74v-16.54c0-4.965-2.822-7.9-7.674-7.9-3.329 0-6.094 1.693-7.279 4.288h-0.3949c-1.072-2.596-3.329-4.288-6.602-4.288-3.216 0-5.642 1.58-6.658 4.288h-0.3385v-3.837zm43.89 69.96c0-20.82-11.62-33.91-30.24-33.91s-30.24 13.09-30.24 33.91 11.62 33.85 30.24 33.85 30.24-13.09 30.24-33.85zm2.934-45.64c3.16 0 5.755-1.354 7.222-3.781h0.395v3.385h4.57v-16.37c0-5.022-3.385-8.012-9.422-8.012-5.474 0-9.312 2.652-9.821 6.658h4.57c0.5077-1.75 2.37-2.709 5.022-2.709 3.216 0 4.909 1.467 4.909 4.119v2.087l-6.489 0.395c-5.699 0.3385-8.913 2.822-8.913 7.166-0.056 4.288 3.329 7.053 7.956 7.053zm51.74 59.75c0-9.312-5.417-14.73-19.07-17.72l-7.279-1.58c-8.972-1.974-12.47-5.529-12.47-10.66 0-6.658 6.32-10.66 14.5-10.66 8.574 0 14.22 4.401 14.95 11.62h8.181c-0.395-11.11-9.821-18.96-22.91-18.96-13.6 0-23.13 7.618-23.13 18.39 0 9.312 5.699 15.29 18.84 18.17l7.279 1.58c9.083 1.974 12.75 5.642 12.75 11.11 0 6.433-6.489 11.11-15.35 11.11-9.422 0-15.97-4.288-16.93-11.34h-8.181c0.7899 11.34 10.32 18.67 24.66 18.67 14.62 0 24.15-7.618 24.15-19.74z" fill="#1d1d1f"/></g></svg>
