<svg width="24" height="24" version="1.1" viewBox="0 0 24 24" xmlns="http://www.w3.org/2000/svg">
  <path fill="#4285f4" fill-rule="evenodd" d="m12.8 0.875a1.63 1.63 0 0 0-1.62 0l-8.6 4.96a1.62 1.62 0 0 0-0.389 0.312l3.6 2.07c0.087-0.0941 0.188-0.175 0.302-0.241l5.26-3.03a1.3 1.3 0 0 1 1.3 0l5.26 3.03c0.114 0.0659 0.215 0.148 0.302 0.241l3.6-2.07a1.62 1.62 0 0 0-0.389-0.312zm9.31 5.81-3.63 2.08c0.0247 0.101 0.0376 0.205 0.0376 0.311v5.78a1.3 1.3 0 0 1-0.636 1.12l-5.26 3.13a1.3 1.3 0 0 1-0.312 0.134v4.09a1.62 1.62 0 0 0 0.464-0.185l8.63-5.09a1.62 1.62 0 0 0 0.795-1.39v-9.41c0-0.184-0.0315-0.363-0.0902-0.532zm-20.3 0.532c0-0.184 0.0315-0.363 0.0902-0.532l3.63 2.08c-0.0247 0.101-0.0376 0.205-0.0376 0.311v6.03a1.3 1.3 0 0 0 0.675 1.14l5.22 2.86c0.104 0.0564 0.213 0.098 0.324 0.125v4.09a1.62 1.62 0 0 1-0.493-0.173l-8.57-4.67a1.62 1.62 0 0 1-0.844-1.42zm9.08-6.91a2.27 2.27 0 0 1 2.27 0l8.6 4.96a2.26 2.26 0 0 1 1.14 1.96v9.41a2.26 2.26 0 0 1-1.11 1.95l-8.63 5.09a2.27 2.27 0 0 1-2.25 0.0389l-8.57-4.67a2.26 2.26 0 0 1-1.18-1.99v-9.86a2.26 2.26 0 0 1 1.14-1.96l8.6-4.96zm-2.79 8.95 3.44-1.98c0.305-0.176 0.681-0.176 0.986 0l3.44 1.98a0.973 0.973 0 0 1 0.487 0.84v3.8c0 0.344-0.182 0.659-0.477 0.837l-3.44 2.05a0.986 0.986 0 0 1-0.977 0.0169l-3.41-1.87a0.973 0.973 0 0 1-0.506-0.853v-3.96c0-0.347 0.186-0.668 0.487-0.84z"/>
</svg>
