<svg width="24" height="24" version="1.1" viewBox="0 0 24 24" xmlns="http://www.w3.org/2000/svg">
  <radialGradient id="a" cx="-122" cy="443" r="29.6" gradientTransform="matrix(.326 0 0 -.326 45.7 150)" gradientUnits="userSpaceOnUse">
    <stop stop-color="#fff" offset="0"/>
    <stop stop-color="#007808" offset="1"/>
  </radialGradient>
  <g transform="matrix(1.05 0 0 1.05 -.579 -.619)" stroke-width=".326">
    <path d="m2.17 6.5v-2.38l1.59 0.548v2.21z" fill="#0b4819"/>
    <path d="m3.46 16.3v-8.83l1.53 0.322v8.21z" fill="#0b4819"/>
    <path d="m10.9 4.14-3.91 4.5v1.91l5.8-6.55 9.19-0.711-13.5 14.1 1.8 0.0948 9.84-10v9.52l-1.09 1.03 2.77 0.15v2.63l-8.67-0.671 4.43-4.3v-2.12l-6.32 6.26-7.59-0.587 12.2-13.1-2 0.108-8.8 9.61v-8.21l0.831-0.981-2.05 0.111v-2.21z" fill="#105c80"/>
    <path d="m3.46 7.45 0.88-1.06 1.47 0.401-0.831 0.981z" fill="#0b4819"/>
    <path d="m5.59 8.36 1.4 0.263v1.91l-1.4-0.115z" fill="#084010"/>
    <path d="m7.16 17.8 1.31-0.424 1.8 0.0948-1.19 0.44z" fill="#0c541e"/>
    <path d="m9.76 3.5 1.14 0.639-3.91 4.5-1.4-0.263z" fill="#1a5c34"/>
    <path d="m5.59 10.4 6.19-7.11 1.01 0.665-5.8 6.55z" fill="#0b4819"/>
    <path d="m12.8 5.89 0.942 0.473-8.8 9.61-1.53 0.301z" fill="#1a5c34"/>
    <path d="m2.01 19.9 13-14.1 0.789 0.492-12.2 13.1z" fill="#0b4819"/>
    <path d="m16.9 13.8 0.652-0.141-6.32 6.26-1.12 0.642z" fill="#1a5c34"/>
    <path d="m16.9 16.1v-2.3l0.652-0.141v2.12z" fill="#0b4819"/>
    <path d="m12.1 20.7 4.76-4.63 0.652-0.326-4.43 4.3z" fill="#0b4819"/>
    <path d="m19.7 17.4-1.18 1.11 0.531-0.521 1.09-1.03z" fill="#13802d"/>
    <path d="m9.08 17.9 10.6-10.9 0.44 0.407-9.84 10z" fill="#0b4819"/>
    <path d="m19.7 7.03 0.44 0.407v9.52l-0.44 0.437z" fill="#084010"/>
    <path d="m21.5 18.7 0.294-0.551v2.63l-0.294 0.789z" fill="#084010"/>
    <path d="m21.7 2.49 0.275 0.792-13.5 14.1-1.31 0.424z" fill="#1a5c34"/>
    <path d="m9.76 3.5-4.17 4.86v2.06l6.19-7.11 9.94-0.841-14.6 15.3 1.92 0.111 10.6-10.9v10.3l-1.18 1.11 3.01 0.178v2.87l-9.39-0.795 4.76-4.63v-2.3l-6.81 6.78-8.05-0.681 13-14.1-2.15 0.127-9.35 10.4v-8.83l0.88-1.06-2.17 0.128v-2.38z" fill="url(#a)"/>
  </g>
</svg>
