<svg width="24" height="24" version="1.1" viewBox="0 0 24 24" xmlns="http://www.w3.org/2000/svg">
    <defs>
        <linearGradient id="grad" x1="1.5" x2="88.3" y1="29.1" y2="38.2"
                        gradientTransform="matrix(.256 0 0 .256 .492 3.55)" gradientUnits="userSpaceOnUse">
            <stop stop-color="#06a0ce" offset="0"/>
            <stop stop-color="#51cbbf" offset="1"/>
        </linearGradient>
    </defs>
    <path fill="url(#grad)"
          d="m22.2 4.62a3.65 3.65 0 0 0-5.07-0.0869 0.353 0.353 0 0 0 0 0.511l0.44 0.45a0.348 0.348 0 0 0 0.455 0.0307 2.09 2.09 0 0 1 2.74 3.15c-2.9 2.89-6.76-5.22-15.5-1.04a1.19 1.19 0 0 0-0.511 1.67l1.51 2.6a1.19 1.19 0 0 0 1.61 0.442l0.0358-0.0204-0.0281 0.0204 0.66-0.368a15.4 15.4 0 0 0 2.1-1.57 0.368 0.368 0 0 1 0.478-0.0153 0.343 0.343 0 0 1 0.0153 0.511 15.8 15.8 0 0 1-2.22 1.67h-0.023l-0.667 0.373a1.88 1.88 0 0 1-0.923 0.24 1.9 1.9 0 0 1-1.65-0.948l-1.42-2.46c-2.72 1.94-4.39 5.66-3.49 10.4a0.348 0.348 0 0 0 0.34 0.284h1.61a0.348 0.348 0 0 0 0.355-0.317 2.37 2.37 0 0 1 4.71 0 0.345 0.345 0 0 0 0.343 0.304h1.57a0.348 0.348 0 0 0 0.343-0.304 2.37 2.37 0 0 1 4.71 0 0.348 0.348 0 0 0 0.343 0.304h1.56a0.348 0.348 0 0 0 0.348-0.343c0.0358-2.2 0.629-4.72 2.32-5.99 5.85-4.38 4.32-8.13 2.96-9.49zm-5.97 6.61-1.12-0.56a0.7 0.7 0 1 1 1.12 0.562z"/>
</svg>
