<svg width="512" height="512" version="1.1" viewBox="0 0 512 512" xmlns="http://www.w3.org/2000/svg">
  <path d="m256 2.5c28.2 0.296 34.4 26.6 61.4 33.8 25.4 6.78 43-13.2 65.4 0.204 24.2 14.3 16.5 40.2 36.2 60 18.5 18.5 43.8 10.1 56.6 32.8 13.8 24.4-5.8 43 1.45 70 6.78 25.4 32.8 30.6 32.6 56.8-0.296 28.2-26.6 34.4-33.8 61.4-6.78 25.4 13.2 43-0.204 65.4-14.3 24.2-40.2 16.5-60 36.2-18.5 18.5-10.1 43.8-32.8 56.6-24.4 13.8-43-5.8-70 1.45-25.4 6.78-30.6 32.8-56.8 32.6-28.2-0.296-34.4-26.6-61.4-33.8-25.4-6.78-43 13.2-65.4-0.204-24.2-14.3-16.5-40.2-36.2-60-18.5-18.5-43.8-10.1-56.6-32.8-13.8-24.4 5.8-43-1.45-70-6.78-25.4-32.8-30.6-32.6-56.8 0.296-28.2 26.6-34.4 33.8-61.4 6.78-25.4-13.2-43 0.204-65.4 14.3-24.2 40.2-16.5 60-36.2 18.5-18.5 10.1-43.8 32.8-56.6 24.4-13.8 43 5.8 70-1.45 25.4-6.78 30.6-32.8 56.8-32.6z" fill="#daebf1" stroke="#1faedc" stroke-width="5"/>
</svg>
