<svg width="512" height="512" version="1.1" viewBox="0 0 512 512" xmlns="http://www.w3.org/2000/svg">
  <defs>
    <linearGradient id="linearGradient12" x1="12" x2="12" y1="24" y2="4.16" gradientTransform="matrix(10.8 0 0 10.8 126 134)" gradientUnits="userSpaceOnUse">
      <stop stop-color="#208bb2" offset="0"/>
      <stop stop-color="#1faedc" offset="1"/>
    </linearGradient>
  </defs>
  <path d="m256 134c-24.8 0-45 20.2-45 45 0 24.8 20.2 45 45 45s45-20.2 45-45c0-24.8-20.2-45-45-45zm0 18c15 0 27 12 27 27 0 15-12 27-27 27-15 0-27-12-27-27 0-15 12-27 27-27zm0 15a12 12 0 0 0-12 12 12 12 0 0 0 12 12 12 12 0 0 0 12-12 12 12 0 0 0-12-12zm-86.4 44.8a9.02 9.02 0 0 0-4.96 2.52l-25.4 25.6c-11.4 11.4-15.8 28-11.7 43.6 4.16 15.5 16.3 27.8 31.8 31.8 15.5 4.16 32.2-0.288 43.6-11.7l25.4-25.6a9.02 9.02 0 0 0 0-12.7 9.02 9.02 0 0 0-12.8 0l-25.4 25.4c-6.84 6.84-16.7 9.48-26 6.98-9.34-2.5-16.6-9.76-19.1-19.1-2.5-9.34 0.143-19.3 6.98-26.2l25.4-25.4a9.02 9.02 0 0 0 0-12.8 9.02 9.02 0 0 0-7.78-2.52zm170 0a9.02 9.02 0 0 0-4.96 2.52 9.02 9.02 0 0 0 0 12.8l25.4 25.4c6.84 6.84 9.48 16.8 6.98 26.2-2.5 9.44-9.78 16.6-19.1 19.1-9.34 2.5-19.2-0.143-26-6.98l-25.4-25.4a9.02 9.02 0 0 0-12.8 0 9.02 9.02 0 0 0 0 12.7l25.4 25.6c11.4 11.4 28 15.8 43.6 11.7 15.5-4.16 27.6-16.3 31.8-31.8 4.16-15.5-0.288-32.2-11.7-43.6l-25.4-25.6a9.02 9.02 0 0 0-7.78-2.52zm-120 16.9c-11.8 0.0326-23.2 4.68-31.8 13.2l-25.4 25.4c-3.52 3.52-3.52 9.22 0 12.7 3.52 3.52 9.24 3.52 12.8 0l25.4-25.4c6.84-6.84 16.7-9.48 26-6.98 9.34 2.5 16.6 9.78 19.1 19.1 0.626 2.34 0.934 4.7 0.93 7.04v0.0218c-9e-3 7.04-2.78 13.9-7.92 19l-25.4 25.6c-1.66 1.66-2.52 3.8-2.62 5.96h-0.0218v18h36v42.4a9.02 9.02 0 0 0 9.02 9.02 9.02 9.02 0 0 0 9.02-9.02v-42.4h36v-18h-0.0218a9.02 9.02 0 0 0-2.62-5.96l-25.4-25.6c-5.12-5.12-7.9-12-7.92-19v-0.0218c-2e-3 -2.36 0.304-4.7 0.93-7.04 2.5-9.34 9.78-16.6 19.1-19.1 9.34-2.5 19.2 0.144 26 6.98l25.4 25.4a9.02 9.02 0 0 0 12.8 0 9.02 9.02 0 0 0 0-12.7l-25.4-25.4c-11.4-11.4-28-15.8-43.6-11.7-9.9 2.66-18.4 8.56-24.4 16.5-5.96-7.96-14.5-13.9-24.4-16.5-3.88-1.04-7.82-1.55-11.7-1.54zm36.2 72c1.27 1.7 2.66 3.34 4.18 4.86l18.7 18.7h-45.8l18.7-18.7c1.53-1.53 2.92-3.16 4.18-4.86z" color="#000000" fill="url(#linearGradient12)" stroke-linecap="square" stroke-width="10.8" style="-inkscape-stroke:none"/>
</svg>
