<svg
        viewBox="0 0 24 24"
        version="1.1"
        xmlns:xlink="http://www.w3.org/1999/xlink"
        xmlns="http://www.w3.org/2000/svg">
    <defs>
        <radialGradient
                xlink:href="#linearGradient1696"
                id="radialGradient1690"
                cx="5.9145832"
                cy="12.264583"
                fx="5.9145832"
                fy="12.264583"
                r="10.428711"
                gradientTransform="matrix(1,0,0,1.1506695,0,-1.8478991)"
                gradientUnits="userSpaceOnUse">
            <stop stop-color="#dfbc61" offset="0"/>
            <stop stop-color="#a7821a" offset="1"/>
        </radialGradient>
    </defs>
    <g transform="translate(6.0854166,-0.26458327)" fill="url(#radialGradient1690)">
        <path transform="rotate(24,-6.466276,-13.615179)"
              d="m -1.1737864,2.0625 c 0,0 0.45196124,-0.7184091 -0.1898154,-1.23383183 0.022151,0.55209473 -0.3744606,0.73460953 -0.3744606,0.73460953 z"/>
        <path d="M 7.8647787,0.26458347 C 8.5556879,1.2373986 8.6009884,2.5972841 8.0268882,3.6337241 7.9870898,3.6303571 7.9476255,3.6248228 7.9077475,3.6220053 7.6197452,3.6016577 7.3295135,3.5975218 7.0386068,3.6063803 6.2297368,2.0000568 4.4037108,0.99597799 2.60306,1.2118491 3.6464127,1.7878755 4.2782685,2.9912283 4.212435,4.1727866 3.9011577,4.2919286 3.5996459,4.4289463 3.3081381,4.5809897 1.8824121,3.4846541 -0.19832895,3.3727877 -1.7270182,4.3485678 -0.53570325,4.4149318 0.55886134,5.2262169 1.0112631,6.3212241 0.78496661,6.5613561 0.57202092,6.8131379 0.37454435,7.0770835 -1.3867439,6.7058888 -3.3133942,7.5081184 -4.2680338,9.0516928 -3.1666591,8.5949063 -1.8304439,8.8525351 -0.94772125,9.6415366 -1.0476573,9.9548402 -1.1298182,10.274435 -1.193815,10.600521 c -1.7461861,0.431042 -3.1300776,1.989321 -3.3203125,3.792969 0.794108,-0.889415 2.1084572,-1.239968 3.2460937,-0.91211 0.046886,0.329586 0.1099476,0.654545 0.1933594,0.972656 -1.3857158,1.146096 -1.9567747,3.150148 -1.3457031,4.857422 0.3299586,-1.147256 1.364257,-2.031713 2.53320315,-2.228515 0.1834377,0.273678 0.38255777,0.537903 0.59570312,0.789062 -0.75324362,1.634379 -0.39962112,3.688952 0.89257813,4.962891 -0.2003389,-1.175898 0.3461003,-2.42063 1.3124999,-3.105469 0.2831208,0.167127 0.5768816,0.320013 0.8808594,0.455078 0.032519,1.797592 1.241562,3.493478 2.9570313,4.080078 C 6.0614279,23.29295 6.0155416,21.935315 6.587435,20.899349 c 0.3315286,0.0275 0.6613595,0.03408 0.9902343,0.02344 0.8088701,1.606324 2.6348957,2.610403 4.4355477,2.394532 -1.044498,-0.576659 -1.676817,-1.78399 -1.609376,-2.966797 0.307909,-0.117991 0.609576,-0.252119 0.902344,-0.404297 1.425783,1.097873 3.507654,1.210644 5.037109,0.234375 -1.190445,-0.06631 -2.283321,-0.874957 -2.736327,-1.96875 0.456,-0.482192 0.862645,-1.020171 1.205078,-1.613281 L 11.628451,14.76068 c -1.133455,1.9632 -3.4216625,2.910938 -5.6113285,2.324219 -2.1896659,-0.586719 -3.6972656,-2.553404 -3.6972656,-4.820313 0,-2.2669087 1.5075997,-4.2316397 3.6972656,-4.8183589 2.189666,-0.5867193 4.4778735,0.3610179 5.6113285,2.3242187 L 14.812045,7.9325522 C 14.547325,7.4740449 14.243964,7.0461858 13.909701,6.6532553 14.660556,5.0195159 14.306328,2.9671834 13.01517,1.694271 13.215663,2.8710772 12.668511,4.1171931 11.700717,4.8016928 h -0.002 C 11.414921,4.6349952 11.122125,4.4838704 10.82181,4.350521 10.791777,2.5507907 9.5820822,0.85181137 7.8647787,0.26458347 Z"/>
    </g>
</svg>
